<svg width="294" height="48" viewBox="0 0 294 48" fill="none" xmlns="http://www.w3.org/2000/svg">
<g filter="url(#filter0_d)">
<path d="M147.404 12.6992C147.595 9.36986 148.784 6.61124 150.639 4.47093V1.61719H148.118C143.076 1.61719 138.796 3.56724 136.322 7.94298H136.18V2.14038H123.243V37.6695H136.18V23.3532C136.18 17.2652 137.939 12.6517 145.169 12.6517C145.93 12.6041 146.691 12.6041 147.404 12.6992Z" fill="#4A89DC"/>
<path d="M245.431 12.6041C246.525 9.46499 248.237 6.6588 250.52 4.42337V1.61719H248.047C243.005 1.61719 238.725 3.56724 236.251 7.94298H236.061V2.14038H223.124V37.6695H236.061V23.3532C236.061 17.2652 237.868 12.6517 245.05 12.6517L245.431 12.6041Z" fill="#4A89DC"/>
<path d="M173.659 11.2725C171.661 10.2261 168.903 9.56026 166.667 9.56026C165.193 9.56026 162.624 10.1786 162.624 11.9859C162.624 14.4116 166.667 14.7446 168.475 15.1251C174.515 16.3141 179.081 19.0727 179.081 25.6364C179.081 34.9586 170.33 38.8587 161.863 38.8587C156.679 38.8587 151.542 37.3843 147.119 34.7684L151.828 25.9693C154.444 27.7767 158.867 29.584 162.054 29.584C163.671 29.584 166.097 28.823 166.097 26.873C166.097 24.1144 162.054 23.9717 157.963 22.9253C153.921 21.8789 149.878 19.9289 149.878 13.6031C149.878 4.89914 157.963 0.999023 165.954 0.999023C170.092 0.999023 174.23 1.61733 177.987 3.28201L173.659 11.2725Z" fill="#4A89DC"/>
<path d="M289.331 37.6223H276.394V33.6746H276.251C273.968 37.1942 269.498 38.8114 265.217 38.8114C254.373 38.8114 246.763 30.0123 246.763 19.8339C246.763 9.65558 254.23 0.95166 265.027 0.95166C269.212 0.95166 273.635 2.47365 276.347 5.56521V2.09316H289.331V37.6223ZM260.175 19.9291C260.175 24.4475 263.219 27.872 268.499 27.872C273.778 27.872 276.822 24.3999 276.822 19.9291C276.822 15.5533 273.778 11.891 268.499 11.891C263.219 11.891 260.175 15.5533 260.175 19.9291Z" fill="#4A89DC"/>
<path d="M221.079 21.9742H193.825C193.825 27.111 196.632 29.8696 201.959 29.8696C204.717 29.8696 206.715 28.9659 208.142 26.6354H220.603C218.558 35.0064 210.377 38.8114 202.054 38.8114C189.973 38.8114 180.936 32.1526 180.936 19.9291C180.936 8.08602 189.259 0.95166 201.15 0.95166C213.802 0.95166 221.174 8.56165 221.174 20.6901L221.079 21.9742ZM209.045 14.7448C208.427 11.3678 205.193 9.13239 201.721 9.13239C197.963 9.13239 194.824 11.0825 194.016 14.7448H209.045Z" fill="#4A89DC"/>
<path d="M82.0538 19.3103C82.0538 19.025 82.0063 18.692 82.0063 18.4066C81.7209 15.1248 80.627 12.0333 78.772 9.22711C77.9635 7.99048 77.0122 6.84898 75.9658 5.85017C74.4438 4.37574 72.6365 3.13912 70.6388 2.18787C67.5949 0.761002 64.2655 0 60.6983 0C60.3654 0 59.9849 0 59.6044 0C57.0836 0.0951248 54.6579 0.570749 52.3749 1.42687C50.0919 2.23543 48.0943 3.32936 46.4296 4.66111C46.0966 4.94649 45.7161 5.23186 45.3356 5.61236L45.0503 5.89774L44.6698 6.3258L44.4795 6.51604L44.3844 6.61117L43.9088 7.0868C43.5758 7.4673 43.2429 7.84779 42.9575 8.22829C42.3392 8.98929 41.7685 9.79786 41.3404 10.4637C41.055 10.9394 40.7697 11.3674 40.4843 11.843L36.7744 19.4055L36.5842 19.786L36.1561 20.6421C35.3475 22.3068 34.4439 23.9715 33.4926 25.3032C31.3047 27.6813 28.8315 28.8704 25.6448 28.8704C25.407 28.8704 25.2167 28.8704 24.9789 28.8228C23.0764 28.7277 21.4118 28.2996 19.9849 27.4435C19.8422 27.3484 19.6995 27.2533 19.5093 27.1581C18.3202 26.3496 17.4165 25.3508 16.7506 24.0666C15.9896 22.6397 15.6567 21.1653 15.7043 19.5957C15.7043 19.5481 15.7043 19.5006 15.7043 19.5006C15.7994 17.0273 16.7506 15.1248 18.6531 13.4602C19.1288 13.0797 19.6044 12.7467 20.08 12.4138C20.1751 12.3662 20.2227 12.3187 20.3178 12.2711C21.7447 11.5101 23.3142 11.1296 25.1692 11.1296H25.7399C28.6888 11.2247 30.9242 12.176 32.7316 13.9358L38.3915 3.80499C37.0598 2.90131 35.5378 2.14031 33.8255 1.47444C33.778 1.47444 33.6829 1.42687 33.6353 1.42687C33.445 1.37931 33.2548 1.28419 33.017 1.23663C31.2096 0.618314 29.3547 0.285366 27.4046 0.0951161C27.3571 0.0951161 27.3095 0.0951161 27.2619 0.0951161C26.9766 0.0951161 26.6436 0.0475653 26.3582 0.0475653C26.0253 0.0475653 25.6924 0.0475653 25.407 0.0475653H25.2167C21.6496 0.0475653 18.3678 0.808552 15.3713 2.23543C12.042 3.80499 9.28333 6.13555 7.28571 9.22711C5.24053 12.2711 4.14659 15.648 4.00391 19.3103C4.00391 19.6433 4.00391 19.9287 4.00391 20.214C4.00391 25.3032 5.85884 29.7741 9.52115 33.5315C13.3737 37.4792 18.3678 39.6195 24.4082 39.8573C24.7887 39.8573 25.1692 39.9049 25.5497 39.9049C28.9742 39.9049 32.1133 39.2866 34.9195 38.0975C35.6329 37.8121 36.2988 37.4316 37.0122 37.0511C37.3927 36.8133 37.7732 36.5755 38.1062 36.3377L38.3915 36.1474L38.8196 35.8621C39.3428 35.4816 39.866 35.0535 40.3416 34.6254L40.5318 34.4828C40.8172 34.1974 41.1026 33.9596 41.388 33.6742L42.3868 32.5327L42.7673 32.0571L42.9575 31.7717L43.1478 31.5339C44.6698 29.0131 49.5211 19.8335 49.5211 19.8335L49.8065 19.2628L50.0443 18.8347C50.7578 17.503 51.2809 16.5993 51.9944 15.6005V15.5529C53.6115 13.2223 56.3701 11.5577 59.6519 11.2723C65.1216 10.7967 69.9254 14.4114 70.3535 19.3103C70.7815 24.2093 66.6912 28.585 61.2215 29.0606C60.08 29.1558 58.9861 29.0606 57.9397 28.8704H57.8921C53.8969 28.0143 51.3285 25.113 50.0443 23.7812L44.7649 33.4839C44.7649 33.4839 46.382 35.1486 47.5235 35.9572C48.665 36.7658 50.0919 37.5743 51.2334 38.0975C54.0396 39.2866 57.0836 40 60.4605 40C60.841 40 60.7934 40 61.1739 40C67.1668 39.7622 72.5413 37.4316 76.3939 33.4839C80.0562 29.7265 82.0538 25.4459 82.0538 20.4043V20.1665C82.1014 19.8811 82.1014 19.5957 82.0538 19.3103Z" fill="#4A89DC"/>
<path d="M102.22 38.8587C99.5091 38.8587 97.0359 38.5258 94.8005 37.9075C92.565 37.2891 90.6625 36.2903 89.093 34.911C87.5234 33.5317 86.2868 31.7719 85.4307 29.6792C84.5745 27.5389 84.1465 25.0181 84.1465 22.0216V2.09298H96.6554V21.7838C96.6554 24.0192 97.1786 25.6364 98.2725 26.6352C99.3189 27.634 100.698 28.1572 102.363 28.1572C104.028 28.1572 105.407 27.6815 106.453 26.7303C107.5 25.779 108.023 24.2095 108.023 22.0216V2.04541H120.484V21.6411C120.484 24.7327 120.056 27.3486 119.152 29.4889C118.296 31.6292 117.06 33.4366 115.443 34.7684C113.825 36.1477 111.923 37.1465 109.688 37.7648C107.405 38.5258 104.931 38.8587 102.22 38.8587Z" fill="#4A89DC"/>
</g>
<defs>
<filter id="filter0_d" x="0.00390625" y="0" width="293.327" height="48" filterUnits="userSpaceOnUse" color-interpolation-filters="sRGB">
<feFlood flood-opacity="0" result="BackgroundImageFix"/>
<feColorMatrix in="SourceAlpha" type="matrix" values="0 0 0 0 0 0 0 0 0 0 0 0 0 0 0 0 0 0 127 0"/>
<feOffset dy="4"/>
<feGaussianBlur stdDeviation="2"/>
<feColorMatrix type="matrix" values="0 0 0 0 0 0 0 0 0 0 0 0 0 0 0 0 0 0 0.25 0"/>
<feBlend mode="normal" in2="BackgroundImageFix" result="effect1_dropShadow"/>
<feBlend mode="normal" in="SourceGraphic" in2="effect1_dropShadow" result="shape"/>
</filter>
</defs>
</svg>
