<svg width="112" height="112" viewBox="0 0 112 112" fill="none" xmlns="http://www.w3.org/2000/svg">
<g filter="url(#filter0_d)">
<path d="M19.7045 0.00585938H92.2955C100.969 0.00585938 108 7.03701 108 15.7104V88.2909C108 96.9643 100.969 103.995 92.2955 103.995H19.7045C11.0312 103.995 4 96.9643 4 88.2909V15.7104C4 7.03701 11.0312 0.00585938 19.7045 0.00585938Z" fill="#006699"/>
<path opacity="0.781116" d="M80.5232 4.45166H31.4768C18.494 4.45166 8.04248 14.9884 8.04248 28.0768V75.9272C8.46271 86.1437 10.0792 79.6851 13.156 68.3711C16.7319 55.2219 28.378 43.7293 42.5604 35.1161C53.3853 28.5422 65.5023 24.3443 87.5576 23.9449C100.066 23.7184 98.9617 7.71154 80.5236 4.45166H80.5232Z" fill="url(#paint0_linear)"/>
<path d="M37.2759 87.2819V40.0222H21.5678V87.2819H37.2759ZM29.4239 33.5659C34.9016 33.5659 38.3112 29.9369 38.3112 25.4019C38.2091 20.7646 34.9018 17.2363 29.5279 17.2363C24.1548 17.2363 20.6411 20.7646 20.6411 25.4019C20.6411 29.9371 24.0499 33.5659 29.3215 33.5659H29.4236H29.4239Z" fill="white"/>
<path d="M45.9702 87.2822H61.6784V60.8901C61.6784 59.4776 61.7805 58.0666 62.1952 57.0569C63.3308 54.2348 65.9154 51.312 70.2547 51.312C75.9389 51.312 78.2128 55.6458 78.2128 61.999V87.2819H93.9199V60.1837C93.9199 45.6674 86.1704 38.9131 75.8354 38.9131C67.3614 38.9131 63.6408 43.6497 61.5738 46.8758H61.6787V40.0217H45.9706C46.1767 44.4563 45.9706 87.2814 45.9706 87.2814L45.9702 87.2822Z" fill="white"/>
</g>
<defs>
<filter id="filter0_d" x="0" y="0" width="112" height="112" filterUnits="userSpaceOnUse" color-interpolation-filters="sRGB">
<feFlood flood-opacity="0" result="BackgroundImageFix"/>
<feColorMatrix in="SourceAlpha" type="matrix" values="0 0 0 0 0 0 0 0 0 0 0 0 0 0 0 0 0 0 127 0"/>
<feOffset dy="4"/>
<feGaussianBlur stdDeviation="2"/>
<feColorMatrix type="matrix" values="0 0 0 0 0 0 0 0 0 0 0 0 0 0 0 0 0 0 0.25 0"/>
<feBlend mode="normal" in2="BackgroundImageFix" result="effect1_dropShadow"/>
<feBlend mode="normal" in="SourceGraphic" in2="effect1_dropShadow" result="shape"/>
</filter>
<linearGradient id="paint0_linear" x1="17.0256" y1="-10.6738" x2="30.5578" y2="28.7683" gradientUnits="userSpaceOnUse">
<stop stop-color="white"/>
<stop offset="1" stop-color="white" stop-opacity="0"/>
</linearGradient>
</defs>
</svg>
