<svg width="89" height="181" viewBox="0 0 89 181" fill="none" xmlns="http://www.w3.org/2000/svg">
<g filter="url(#filter0_d)">
<path d="M85 0H4V173H85V0Z" fill="#D62724"/>
<path d="M28.9374 36.3049V45.9139H20.0815V50.1763H41.7952V45.9139H32.1982V36.3049H41.7952V32.0425H20.0815V36.3049H28.9374Z" fill="white"/>
<path d="M47.168 28.6399H50.3917V19.1056H68.8445V14.8433H47.168V28.6399Z" fill="white"/>
<path d="M68.8445 32.0425H47.168V36.3048H68.8445V32.0425Z" fill="white"/>
<path d="M38.9048 64.6089C38.9048 65.9923 38.4972 67.1887 38.0896 68.1608C37.682 69.133 37.2374 69.806 37.0521 70.1051L39.7941 72.0493C40.0905 71.7876 42.2396 68.8712 42.2396 64.3845C42.2396 59.2622 39.5347 56.1963 35.607 56.1963C31.5681 56.1963 30.2342 59.4491 28.8632 62.7768C27.8256 65.2819 27.1587 67.1139 25.4542 67.1139C23.8979 67.1139 22.8604 65.4314 22.8604 63.1881C22.8604 61.6551 23.4533 60.0848 24.2685 58.8509C24.4167 58.5892 24.4908 58.4396 24.602 58.3275L22.0082 56.3832C21.8229 56.5702 19.6367 59.0753 19.6367 63.4872C19.6367 68.0861 22.1934 71.3015 25.8988 71.3015C28.6779 71.3015 30.3083 69.3947 31.4569 66.927C31.9757 65.8053 32.3833 64.6836 32.865 63.562C33.4208 62.1412 34.1619 60.5334 35.8664 60.5334C37.645 60.5708 38.9048 61.9542 38.9048 64.6089Z" fill="white"/>
<path d="M41.7952 77.4331H20.0815V81.6955H41.7952V77.4331Z" fill="white"/>
<path d="M56.6537 46.1008V47.7833C56.6537 48.8302 56.7278 49.9145 56.5796 50.8119C56.4685 51.7092 56.2091 52.5318 55.6903 53.13C55.0604 53.803 54.2823 54.0273 53.5412 54.0273C52.8372 54.0273 52.059 53.7282 51.5403 53.13C50.5769 52.0457 50.3175 50.8493 50.3175 48.419V46.1008H56.6537ZM65.8431 46.1008V47.8955C65.8431 49.3911 65.8802 51.4849 64.7685 52.6065C64.2868 53.0926 63.731 53.3169 62.9159 53.3169C61.9895 53.3169 61.1743 53.13 60.6926 52.5318C59.7292 51.4101 59.6551 49.4285 59.6551 47.7086V46.1008H65.8431ZM49.2429 56.495C50.2063 57.5793 51.7626 58.2897 53.6153 58.2897C56.6908 58.2897 57.9506 55.9342 58.3582 54.1769C58.6917 55.1864 59.6922 57.5045 62.9159 57.5045C64.5092 57.5045 65.8061 57.0559 67.0288 55.7099C68.5851 53.9899 68.8074 51.6718 68.8074 49.1293V42.0254H47.1309V47.4468C47.1679 51.1858 47.1679 54.2143 49.2429 56.495Z" fill="white"/>
<path d="M41.7952 97.4365V93.1367H23.2682V86.4814H20.0815V104.129H23.2682V97.4365H41.7952Z" fill="white"/>
<path d="M41.7952 108.915H20.0815V113.177H41.7952V108.915Z" fill="white"/>
<path d="M64.4351 94.7444L55.2457 98.0721V91.4916L64.4351 94.7444ZM52.1703 90.4073V99.2311L50.3176 99.9415C49.5765 100.241 48.3537 100.54 47.7979 101.175C47.3532 101.661 47.168 102.334 47.168 103.755V105.55L68.8445 97.0252V92.7254L47.168 84.2007V88.6126L52.1703 90.4073Z" fill="white"/>
<path d="M23.1941 132.844V131.049C23.1941 130.114 23.1571 129.292 23.2682 128.544C23.3794 127.834 23.6017 127.236 24.0834 126.712C24.491 126.263 25.4174 125.815 26.3808 125.815C27.2701 125.815 28.1594 126.226 28.7522 126.899C29.7156 127.983 29.9009 129.441 29.9009 131.423V132.844H23.1941V132.844ZM32.9764 132.844V132.134C32.9764 131.161 33.0134 129.441 33.8657 128.507C35.0144 127.273 40.3131 124.917 41.0912 124.057C41.647 123.422 41.7952 122.711 41.7952 121.029V118.599C40.276 119.608 33.4951 123.497 32.6429 124.431C32.013 125.104 31.8277 125.703 31.7536 126.413C31.4942 125.067 31.0125 124.02 30.1973 123.123C29.1598 122.001 27.8259 121.515 26.3808 121.515C24.5281 121.515 23.0089 122.338 21.9714 123.459C20.5633 125.03 20.2669 126.899 20.1928 128.993C20.1557 129.703 20.1187 130.526 20.1187 131.311V137.069H41.7952V132.807H32.9764V132.844Z" fill="white"/>
<path d="M37.4229 147.201C38.3863 148.286 38.6456 149.482 38.6456 151.912V154.23H32.3094V152.548C32.3094 151.501 32.2353 150.454 32.3835 149.519C32.4947 148.622 32.7541 147.799 33.3099 147.201C33.9398 146.528 34.7179 146.304 35.459 146.304C36.163 146.304 36.9041 146.603 37.4229 147.201ZM23.12 154.193V152.398C23.12 150.903 23.083 148.809 24.1946 147.687C24.6763 147.201 25.2321 146.977 26.0473 146.977C26.9736 146.977 27.7888 147.164 28.2705 147.762C29.2339 148.884 29.308 150.865 29.308 152.585V154.193H23.12ZM35.3108 142.042C32.2353 142.042 30.9755 144.397 30.5679 146.154C30.2344 145.145 29.2339 142.827 26.0102 142.827C24.4169 142.827 23.12 143.275 21.8972 144.621C20.341 146.341 20.1187 148.659 20.1187 151.202V158.306H41.7952V152.884C41.7952 149.108 41.7582 146.08 39.6832 143.799C38.7198 142.715 37.1635 142.042 35.3108 142.042Z" fill="white"/>
<path d="M47.168 132.956V137.106H55.7645L68.8445 144.509V141.855C68.8445 140.247 68.2887 140.023 66.9177 139.275L59.4328 135.125L68.8445 129.853V125.516L55.7645 132.993H47.168V132.956Z" fill="white"/>
<path d="M65.732 113.065V114.86C65.732 115.795 65.769 116.617 65.6578 117.365C65.5467 118.075 65.3244 118.673 64.8427 119.197C64.4351 119.646 63.5087 120.094 62.5453 120.094C61.656 120.094 60.7667 119.683 60.1739 119.01C59.2105 117.963 59.0252 116.468 59.0252 114.486V113.065H65.732V113.065ZM55.9497 113.065V113.775C55.9497 114.748 55.9127 116.468 55.0604 117.402C53.9117 118.636 48.613 120.992 47.8349 121.852C47.2791 122.487 47.1309 123.198 47.1309 124.88V127.31C48.6501 126.301 55.431 122.412 56.2832 121.478C56.9131 120.805 57.0984 120.206 57.2095 119.496C57.4319 120.842 57.9506 121.889 58.7658 122.786C59.7663 123.908 61.1373 124.394 62.5824 124.394C64.4351 124.394 65.9543 123.571 66.9918 122.45C68.3998 120.879 68.6963 119.01 68.7704 116.954C68.8074 116.243 68.8445 115.421 68.8445 114.635V108.803H47.1679V113.065H55.9497Z" fill="white"/>
<path d="M65.732 67.7118V69.5065C65.732 70.4412 65.769 71.2638 65.6578 72.0116C65.5467 72.722 65.3244 73.3202 64.8427 73.8436C64.4351 74.2923 63.5087 74.741 62.5453 74.741C61.656 74.741 60.7667 74.3297 60.1739 73.6567C59.2105 72.6098 59.0252 71.1142 59.0252 69.1326V67.7118H65.732ZM55.9497 67.7118V68.4222C55.9497 69.3943 55.9127 71.1142 55.0604 72.0489C53.9117 73.2828 48.613 75.6383 47.8349 76.4983C47.2791 77.1339 47.1309 77.8443 47.1309 79.5268V81.9571C48.6501 80.9476 55.431 77.0591 56.2832 76.1244C56.9131 75.4514 57.0984 74.8531 57.2095 74.1427C57.4319 75.4888 57.9506 76.5357 58.7658 77.433C59.7663 78.5547 61.1373 79.0407 62.5824 79.0407C64.4351 79.0407 65.9543 78.2182 66.9918 77.0965C68.3998 75.5261 68.6963 73.6567 68.7704 71.5629C68.8074 70.8525 68.8445 70.0299 68.8445 69.2448V63.4868H47.1679V67.7492H55.9497V67.7118Z" fill="white"/>
</g>
<defs>
<filter id="filter0_d" x="0" y="0" width="89" height="181" filterUnits="userSpaceOnUse" color-interpolation-filters="sRGB">
<feFlood flood-opacity="0" result="BackgroundImageFix"/>
<feColorMatrix in="SourceAlpha" type="matrix" values="0 0 0 0 0 0 0 0 0 0 0 0 0 0 0 0 0 0 127 0"/>
<feOffset dy="4"/>
<feGaussianBlur stdDeviation="2"/>
<feColorMatrix type="matrix" values="0 0 0 0 0 0 0 0 0 0 0 0 0 0 0 0 0 0 0.25 0"/>
<feBlend mode="normal" in2="BackgroundImageFix" result="effect1_dropShadow"/>
<feBlend mode="normal" in="SourceGraphic" in2="effect1_dropShadow" result="shape"/>
</filter>
</defs>
</svg>
