<svg width="250" height="94" viewBox="0 0 250 94" fill="none" xmlns="http://www.w3.org/2000/svg">
<g filter="url(#filter0_d)">
<path d="M146.509 46.1963C146.187 46.6782 145.945 47.0397 145.743 47.361C143.566 50.4535 141.146 53.2649 137.84 55.2329C133.404 57.8435 128.605 58.9279 123.564 57.8435C120.984 57.2812 118.604 55.8354 116.185 54.7108C115.62 54.4297 115.338 54.4297 114.814 54.751C112.717 55.9559 110.701 57.3214 108.523 58.2853C104.612 59.9722 100.498 60.8959 96.2642 59.8115C93.6027 59.1287 91.3042 57.6025 89.2073 55.8354C87.7153 54.5502 87.6346 54.5502 86.1426 55.7952C83.4408 58.0042 80.3357 59.4099 77.1097 60.6148C73.0772 62.0606 68.9237 62.9844 64.6492 63.386C59.4472 63.9081 54.6485 63.0246 51.1402 58.7673C48.3175 55.3534 47.5513 51.4175 49.2853 47.3208C51.1806 42.8226 53.3581 38.4448 55.4147 34.0269C56.4632 31.7376 57.552 29.4081 58.6004 27.0787C58.802 26.6369 58.8827 26.1549 58.8827 25.673C58.923 24.7894 59.0843 23.8656 58.0762 23.3435C57.0681 22.8214 55.8583 22.9017 55.0921 23.8656C54.1646 25.0705 53.3178 26.3557 52.6323 27.6811C50.2934 32.1392 48.0755 36.5973 45.777 41.0956C44.0833 44.4693 42.3897 47.8028 40.696 51.1765C39.083 54.3493 36.0183 55.5542 32.7116 54.3092C31.5825 53.9076 30.897 53.0641 30.6953 51.8191C30.4131 50.0519 31.0179 48.4454 31.6228 46.879C32.9939 43.425 34.4053 39.971 35.7763 36.4768C36.5022 34.6293 37.2683 32.7417 37.9539 30.8942C38.4378 29.5688 38.5991 28.2032 38.0345 26.918C37.5909 25.914 36.7441 25.191 35.5344 25.3115C34.2036 25.432 33.1955 26.1148 32.6713 27.3197C30.9373 31.6171 29.2436 35.9547 27.5096 40.2521C25.453 45.4332 23.4368 50.6142 21.2995 55.7149C20.493 57.6026 19.3236 59.3296 17.3073 60.1328C16.2992 60.5345 15.1298 60.8156 14.041 60.8156C10.6133 60.8557 7.6696 59.7312 5.61301 56.8395C4 54.5502 3.59675 51.9797 4.40325 49.2486C5.12911 46.7184 5.85496 44.2283 6.58082 41.7382C7.30667 39.3686 8.07285 36.9989 8.79871 34.6293C9.48424 32.4204 10.1294 30.2114 10.8956 28.0426C12.3877 23.7452 13.5571 19.3272 15.896 15.3913C17.509 12.7003 20.0898 11.2545 23.0739 10.3307C26.1789 9.40698 28.8404 10.5717 31.4615 11.8971C32.4696 12.379 33.4778 12.9413 34.4859 13.343C35.9376 13.9454 37.228 13.5839 38.3975 12.62C39.3653 11.8569 40.2927 11.0938 41.1799 10.2102C43.3575 8.0816 48.1158 7.67997 50.4144 10.1701C50.9386 10.7324 51.5838 11.2143 52.1484 11.7364C53.3581 12.8208 53.842 12.9012 55.2534 12.1381C58.6004 10.2504 62.0281 10.5315 65.4154 11.7364C67.3913 12.4192 68.5608 14.106 69.3269 16.074C70.4157 18.9658 69.9721 21.7772 68.843 24.5083C66.7864 29.5286 64.5686 34.4687 62.5926 39.5292C61.4232 42.5013 60.4151 45.5938 59.5682 48.6864C59.2053 49.9314 59.2053 51.4576 59.5279 52.7027C60.0118 54.6305 61.7861 55.2731 63.5604 55.4739C66.2622 55.8354 68.964 55.3133 71.5448 54.5903C73.7627 53.9879 75.9806 53.2248 78.1178 52.4617C79.1663 52.1002 80.1341 51.4978 81.1422 51.0158C81.9891 50.574 82.0697 49.9716 81.6261 49.1683C80.6987 47.5618 79.7309 45.9553 78.9244 44.2684C77.1904 40.7341 75.779 37.0793 76.1822 33.0228C76.5048 29.4885 77.7952 26.3959 81.0616 24.5484C85.9006 21.8173 89.8122 22.5403 93.4011 26.6771C96.4658 30.2114 97.474 34.5088 96.1836 39.0874C95.4577 41.6579 94.3689 44.1078 93.3608 46.5979C93.0785 47.2807 93.2398 47.7225 93.6834 48.1241C95.74 50.0118 98.0385 51.4978 100.619 52.542C101.587 52.9437 102.636 53.2248 103.644 53.4256C105.862 53.8674 107.918 53.3453 109.773 52.1002C110.66 51.4978 110.66 50.9355 110.055 50.1322C105.821 44.3488 104.128 37.9628 105.418 30.8942C105.902 28.2434 107.112 25.7533 109.975 24.9902C111.749 24.5083 113.725 24.5484 115.54 24.7894C118.524 25.1509 121.226 26.3557 123.04 28.886C125.218 31.9384 125.782 35.3121 124.855 38.9669C124.169 41.5775 122.798 43.8266 121.266 45.9954C120.661 46.8389 120.621 47.6421 121.468 48.2446C122.718 49.1282 124.008 50.0921 125.46 50.6142C128.565 51.7388 131.791 51.6183 134.936 50.6142C138.364 49.5298 140.783 47.2405 142.154 43.907C143.808 39.8907 143.808 35.6736 143.727 31.4565C143.646 28.1631 143.525 24.8697 143.445 21.5362C143.404 20.3715 143.203 20.2911 142.074 20.5321C139.09 21.1346 136.106 21.6567 133.122 22.219C132.194 22.3796 131.226 22.5001 130.299 22.6608C128.242 23.0222 126.548 22.1788 126.428 19.8092C126.307 17.3994 125.944 14.9896 125.702 12.62C125.702 12.4995 125.661 12.3389 125.661 12.2184C125.54 9.40698 126.226 7.84062 129.613 7.96111C133.122 8.0816 136.63 8.20209 140.178 8.40291C141.912 8.48323 142.517 8.04144 142.638 6.35459C142.719 5.02921 142.759 3.70384 142.84 2.37846C142.961 0.370311 143.404 -0.0714853 145.461 0.0088407C146.671 0.0490037 147.881 0.24982 149.09 0.530961C150.744 0.892427 151.631 2.05715 151.752 3.744C151.832 5.10954 151.792 6.47508 151.792 7.84062C151.792 8.80453 152.074 9.32665 153.163 9.44714C156.309 9.76844 159.414 10.2102 162.519 10.5717C164.011 10.7324 164.817 11.3348 165.019 12.4192C165.382 14.3069 164.938 15.5921 163.527 16.1142C161.51 16.8371 159.454 17.3994 157.357 17.8814C155.905 18.2428 154.413 18.4035 152.921 18.6445C151.913 18.8051 151.389 19.3272 151.389 20.4518C151.429 25.914 151.308 31.4163 151.47 36.8785C151.55 39.7702 151.994 42.6218 153.203 45.3127C154.212 47.4815 155.905 48.3249 158.244 47.9634C161.712 47.4011 164.857 46.1561 167.64 43.9873C169.172 42.7824 170.18 41.2964 170.261 39.2481C170.382 35.5129 170.584 31.7778 170.826 28.0426C170.906 26.9582 171.027 25.8336 171.39 24.8296C171.592 24.2673 172.318 23.5443 172.842 23.5042C175.665 23.4239 178.528 23.3837 181.31 23.6247C183.085 23.7853 184.294 25.432 184.214 27.2795C184.093 29.8901 183.73 32.5007 183.488 35.1113C183.165 38.3243 182.883 41.5374 182.56 44.7504C182.197 48.0036 184.819 49.6101 187.399 49.6503C189.577 49.6904 190.827 48.8872 191.754 46.5979C192.722 44.2283 193.287 41.6578 193.69 39.1276C194.255 35.5531 194.537 31.8982 194.98 28.2836C195.142 26.7975 196.069 25.673 197.239 25.432C198.569 25.1509 200.303 25.673 200.747 26.8779C201.11 27.8819 201.029 29.127 200.908 30.2516C200.424 34.3884 199.779 38.485 199.376 42.5816C199.134 45.1119 200.545 46.9192 203.046 47.6823C204.296 48.0438 205.546 48.3651 206.836 48.4856C209.094 48.7265 210.667 47.12 211.151 44.5897C211.554 42.4611 211.594 40.2521 211.796 38.0833C212.038 35.5129 212.038 32.9023 212.482 30.3721C213.127 26.5967 215.587 23.223 220.103 22.0985C222.805 21.4559 225.547 21.3755 228.249 21.6567C232.362 22.1386 236.677 24.9099 238.008 29.6491C239.016 33.2236 238.612 36.7178 237.443 40.1718C236.072 44.1881 233.572 47.2807 230.104 49.6503C229.781 49.8511 229.58 50.2929 229.338 50.6142C229.781 50.815 230.225 51.1765 230.668 51.1765C234.822 51.0961 238.774 50.1724 242.363 48.0036C243.169 47.5216 244.056 47.1602 244.903 46.7184C245.71 46.3569 246.153 46.7987 245.952 47.4815C245.589 48.606 245.145 49.8109 244.419 50.7347C241.355 54.6305 237.12 56.478 232.281 56.7993C230.225 56.9198 228.128 56.6788 226.031 56.5583C224.458 56.478 222.886 56.3173 221.313 56.237C220.506 56.1968 220.063 56.5182 219.861 57.3214C218.611 62.4623 217.966 67.6835 217.321 72.9046C216.917 76.198 216.313 79.4914 215.506 82.7044C215.062 84.4716 213.691 85.6765 211.796 85.9576C210.667 86.1584 209.82 85.6363 209.457 84.5921C209.135 83.7085 208.852 82.7847 208.772 81.8208C208.409 77.2422 208.57 72.6235 209.175 68.0851C209.498 65.7556 209.699 63.4262 209.941 61.0967C210.143 59.4902 210.385 57.8435 210.546 56.237C210.667 54.9116 210.385 54.6305 209.094 54.3494C206.473 53.8272 203.892 53.3051 201.271 52.7428C199.497 52.3412 198.126 52.9838 196.916 54.1887C195.343 55.7952 193.569 57.2009 191.472 58.1247C188.972 59.2091 186.27 59.0083 183.689 58.5665C179.939 57.964 176.955 56.0362 174.858 52.8633C174.213 51.8994 173.729 50.7748 173.205 49.7306C172.923 49.1282 172.64 48.8872 171.955 49.2486C169.455 50.4937 166.995 51.8191 164.414 52.8633C161.551 54.0682 158.526 54.4698 155.502 53.6264C152.558 52.8232 150.26 50.8953 148.405 48.5257C147.8 47.843 147.276 47.2003 146.509 46.1963ZM231.717 34.4285C231.676 34.0269 231.676 33.6253 231.636 33.2236C231.273 30.8942 228.934 29.8499 227.039 31.2556C226.192 31.8982 225.426 32.7015 224.821 33.6253C222.886 36.5973 221.998 39.971 221.111 43.3849C220.91 44.2283 220.748 45.1119 220.748 45.9954C220.789 47.602 221.756 48.0839 223.087 47.2003C225.91 45.393 228.007 42.8627 229.781 40.0513C230.87 38.3243 231.757 36.517 231.717 34.4285ZM120.54 36.0752C120.58 34.4687 120.177 32.9826 119.008 31.8179C118.362 31.1753 117.516 30.8942 116.588 31.1753C115.419 31.5368 114.814 32.3802 114.733 33.7859C114.572 36.517 115.741 38.8866 116.951 41.1759C117.556 42.3808 118.161 42.3406 118.967 41.2161C120.056 39.6899 120.5 37.9227 120.54 36.0752ZM92.5543 35.5531C92.272 34.549 92.0704 33.5449 91.6268 32.581C91.0623 31.4163 89.6509 30.854 88.4411 31.1753C87.1104 31.5368 86.5861 32.1392 86.7475 33.7457C86.8684 35.1514 87.191 36.5571 87.554 37.9227C87.8362 38.9268 88.2395 39.9308 88.7637 40.8144C89.4492 42.0595 90.1348 42.0595 90.8203 40.8546C91.7075 39.2882 92.4333 37.5612 92.5543 35.5531Z" fill="#F64060"/>
</g>
<defs>
<filter id="filter0_d" x="0" y="0" width="250" height="94" filterUnits="userSpaceOnUse" color-interpolation-filters="sRGB">
<feFlood flood-opacity="0" result="BackgroundImageFix"/>
<feColorMatrix in="SourceAlpha" type="matrix" values="0 0 0 0 0 0 0 0 0 0 0 0 0 0 0 0 0 0 127 0"/>
<feOffset dy="4"/>
<feGaussianBlur stdDeviation="2"/>
<feColorMatrix type="matrix" values="0 0 0 0 0 0 0 0 0 0 0 0 0 0 0 0 0 0 0.25 0"/>
<feBlend mode="normal" in2="BackgroundImageFix" result="effect1_dropShadow"/>
<feBlend mode="normal" in="SourceGraphic" in2="effect1_dropShadow" result="shape"/>
</filter>
</defs>
</svg>
