<svg width="993" height="855" viewBox="0 0 993 855" fill="none" xmlns="http://www.w3.org/2000/svg">
<path d="M937.541 273.67C937.541 309.215 929.384 338.474 915.234 363.538C910.563 371.794 905.262 379.651 899.38 387.036C847.362 452.698 750.653 488.637 663.246 546.851C405.235 718.683 377.288 443.339 388.941 273.67C393.641 205.208 419.473 142.497 460.513 94.4807C469.132 84.3821 478.443 74.9351 488.373 66.2126C534.965 25.2608 595.159 0.479492 663.246 0.479492C780.059 0.479492 879.814 73.1963 919.366 175.667C931.391 206.85 937.558 240.109 937.541 273.67V273.67Z" fill="#90CCF4"/>
<path d="M721.686 62.0479L460.513 94.4799C469.132 84.3812 478.442 74.9342 488.372 66.2118L721.686 62.0479Z" fill="#D0CDE1"/>
<path d="M915.233 363.539C910.563 371.794 905.262 379.652 899.379 387.036L675.662 359.264L915.233 363.539Z" fill="#D0CDE1"/>
<path d="M928.493 203.844L549.34 153.089L919.366 175.667C922.92 184.875 925.967 194.282 928.493 203.844V203.844Z" fill="#D0CDE1"/>
<path d="M414.66 73.2486C414.66 73.9459 414.64 74.6332 414.581 75.3103C414.285 79.5073 413.085 83.5833 411.069 87.2412C409.053 90.8991 406.272 94.0469 402.929 96.4554C399.585 98.8638 395.763 100.472 391.741 101.163C387.719 101.855 383.599 101.611 379.679 100.451C375.76 99.2908 372.141 97.2429 369.085 94.4566C366.03 91.6702 363.615 88.2155 362.016 84.3442C360.418 80.4728 359.677 76.2822 359.846 72.0776C360.015 67.8731 361.091 63.7605 362.995 60.0393C363.584 58.8731 364.259 57.7549 365.012 56.694C368.291 52.0003 372.886 48.4573 378.177 46.543C383.468 44.6287 389.2 44.4351 394.601 45.9884C400.002 47.5416 404.811 50.767 408.381 55.2295C411.95 59.6919 414.107 65.1768 414.562 70.9443C414.63 71.7022 414.66 72.4703 414.66 73.2486Z" fill="#90CCF4"/>
<path d="M414.66 73.2488C414.66 73.9461 414.641 74.6334 414.582 75.3105L373.532 70.2168L414.563 70.9445C414.631 71.7024 414.66 72.4705 414.66 73.2488Z" fill="#D0CDE1"/>
<path d="M404.868 87.5098L366.893 92.2295C365.815 90.9893 364.845 89.6534 363.994 88.2374L404.868 87.5098Z" fill="#D0CDE1"/>
<path d="M394.096 56.1777L362.995 60.0385C363.585 58.8724 364.259 57.754 365.012 56.6932L394.096 56.1777Z" fill="#D0CDE1"/>
<path d="M790.427 582.747C790.11 583.363 789.781 583.96 789.421 584.53C787.253 588.094 784.342 591.114 780.9 593.369C777.458 595.625 773.572 597.06 769.524 597.57C765.477 598.08 761.37 597.651 757.504 596.316C753.637 594.981 750.108 592.772 747.172 589.851C744.237 586.93 741.971 583.37 740.537 579.43C739.104 575.491 738.54 571.271 738.886 567.078C739.233 562.885 740.481 558.825 742.54 555.193C744.6 551.561 747.418 548.448 750.79 546.083C751.84 545.338 752.944 544.676 754.091 544.104C759.12 541.544 764.788 540.637 770.331 541.506C775.874 542.375 781.025 544.978 785.091 548.963C789.156 552.948 791.939 558.124 793.065 563.792C794.191 569.461 793.605 575.349 791.387 580.664C791.103 581.367 790.781 582.059 790.427 582.747Z" fill="#90CCF4"/>
<path d="M790.427 582.747C790.11 583.363 789.781 583.96 789.421 584.53L755.475 560.17L791.387 580.664C791.103 581.366 790.78 582.059 790.427 582.747Z" fill="#D0CDE1"/>
<path d="M775.3 590.607L739.612 576.403C739.223 574.786 738.973 573.137 738.865 571.475L775.3 590.607Z" fill="#D0CDE1"/>
<path d="M780.016 557.719L750.79 546.083C751.84 545.338 752.944 544.676 754.091 544.104L780.016 557.719Z" fill="#D0CDE1"/>
<path d="M984.622 94.9282C985.094 95.4275 985.545 95.9336 985.961 96.4607C988.588 99.6791 990.486 103.462 991.518 107.533C992.549 111.604 992.688 115.862 991.924 119.995C991.159 124.129 989.511 128.034 987.099 131.428C984.688 134.821 981.573 137.616 977.982 139.609C974.391 141.603 970.415 142.745 966.343 142.952C962.27 143.159 958.204 142.426 954.441 140.806C950.678 139.187 947.312 136.721 944.589 133.589C941.866 130.457 939.854 126.737 938.699 122.701C938.333 121.442 938.059 120.155 937.881 118.853C937.053 113.13 937.945 107.282 940.438 102.099C942.931 96.916 946.904 92.6466 951.821 89.8667C956.738 87.0868 962.363 85.9303 967.937 86.553C973.511 87.1757 978.766 89.5477 982.993 93.3491C983.555 93.8424 984.096 94.3711 984.622 94.9282Z" fill="#90CCF4"/>
<path d="M984.622 94.9268C985.094 95.426 985.545 95.9321 985.961 96.4592L953.127 122.393L982.993 93.3477C983.555 93.8409 984.096 94.3696 984.622 94.9268Z" fill="#D0CDE1"/>
<path d="M987.26 112.194L963.266 142.938C961.655 142.827 960.057 142.569 958.49 142.169L987.26 112.194Z" fill="#D0CDE1"/>
<path d="M958.353 97.5264L938.699 122.701C938.332 121.442 938.059 120.155 937.88 118.853L958.353 97.5264Z" fill="#D0CDE1"/>
<path d="M470.229 616.427C470.229 616.427 530.399 619.014 530.399 634.539C530.399 650.065 462.708 634.539 462.708 634.539L470.229 616.427Z" fill="#A0616A"/>
<path d="M379.974 854.479L267.155 846.717L262.141 784.616L237.07 838.954L126.759 823.429C129.266 725.103 169.379 629.365 171.886 616.428C174.393 603.49 180.385 550.032 180.385 550.032C191.341 526.046 248.753 523.794 293.756 525.968C312.408 526.848 328.955 528.504 339.159 529.694C345.903 530.47 349.889 531.039 349.889 531.039C367.865 550.161 379.448 576.217 386.568 605.327C412.24 710.199 379.974 854.479 379.974 854.479Z" fill="#2E3641"/>
<path d="M254.619 254.176C289.235 254.176 317.297 225.214 317.297 189.488C317.297 153.762 289.235 124.8 254.619 124.8C220.004 124.8 191.942 153.762 191.942 189.488C191.942 225.214 220.004 254.176 254.619 254.176Z" fill="#A0616A"/>
<path d="M212 205.012C212 205.012 194.45 285.225 166.872 308.512C139.294 331.8 274.677 308.512 274.677 308.512C274.677 308.512 244.592 256.762 267.155 233.474C289.719 210.187 212 205.012 212 205.012Z" fill="#A0616A"/>
<path d="M339.861 536.214L298.268 540.975L181.914 554.327C181.914 554.327 181.363 552.8 180.385 550.031C171.936 526.252 131.246 410.538 126.759 375.788C121.744 336.975 174.393 290.4 174.393 290.4C174.393 290.4 224.535 280.05 239.577 280.05C254.62 280.05 314.79 303.337 314.79 303.337L337.228 511.658L339.159 529.693L339.861 536.214Z" fill="#CDD5E1"/>
<path opacity="0.15" d="M386.568 605.328L302.255 554.328C302.255 554.328 300.775 549.36 298.268 540.977C297.015 536.785 295.486 531.713 293.756 525.969C284.028 493.729 267.707 440.529 254.62 401.665C234.563 342.152 332.34 507.753 332.34 507.753L337.228 511.66L339.159 529.695C345.903 530.471 349.889 531.041 349.889 531.041C367.865 550.162 379.448 576.219 386.568 605.328Z" fill="black"/>
<path d="M274.676 308.513C274.676 308.513 249.605 342.151 269.662 401.663C289.719 461.176 317.296 554.327 317.296 554.327L462.707 642.303L482.764 616.428L347.381 507.752C347.381 507.752 342.367 311.1 317.296 303.338C292.226 295.575 274.676 308.513 274.676 308.513Z" fill="#CDD5E1"/>
<path d="M150.576 534.921C150.576 534.921 185.675 609.959 200.718 602.197C215.76 594.434 163.112 516.809 163.112 516.809L150.576 534.921Z" fill="#A0616A"/>
<path d="M146.815 329.213L13.9394 443.064C13.9394 443.064 -36.2022 479.289 56.5599 505.164C149.322 531.039 156.843 546.565 156.843 546.565C156.843 546.565 166.872 512.927 179.407 518.102L71.6023 463.764L159.35 409.426L146.815 329.213Z" fill="#CDD5E1"/>
<path d="M93.4105 242.581C100.384 239.016 115.784 231.822 128.901 223.156C127.982 194.961 131.346 169.366 141.193 155.799C146.721 142.846 158.328 129.877 167.419 119.664C189.743 94.5846 239.108 80.5853 247.864 93.1161C314.085 94.4654 321.057 148.038 321.057 148.038C320.712 170.446 298.147 171.156 278.38 170.339C280.15 185.637 275.433 201.532 261.772 208.581C235.65 222.062 227.813 239.586 240.874 251.718C253.936 263.85 277.446 296.203 246.099 304.291C214.752 312.379 210.834 328.555 219.977 335.295C229.12 342.035 199.079 323.163 199.079 323.163C199.079 323.163 193.854 355.515 166.426 347.427C163.968 346.702 161.511 344.845 159.096 342.067C151.688 350.468 145.08 355.435 140.099 355.462C111.574 355.618 114.994 323.01 114.994 323.01C114.994 323.01 81.1359 332.824 91.701 328.878C102.266 324.932 102.719 308.264 74.6456 291.753C46.5727 275.241 77.6636 250.629 93.4105 242.581Z" fill="#2E3641"/>
<path d="M443.401 327.105L442.947 327.043L444.056 331.395C445.105 337.467 446.627 343.442 448.609 349.261L481.146 476.914C482.184 480.989 484.353 484.661 487.385 487.482C490.417 490.302 494.181 492.148 498.215 492.792L564.568 503.386C568.858 504.071 573.249 503.365 577.134 501.364C581.018 499.363 584.205 496.167 586.254 492.217L649.311 370.659C651.282 367.291 653.082 363.82 654.705 360.261L656.846 356.133L656.512 356.088C663.197 339.768 666.139 322.076 665.11 304.389C664.081 286.703 659.108 269.501 650.579 254.124C642.05 238.747 630.196 225.611 615.94 215.739C601.684 205.868 585.411 199.527 568.391 197.213C551.371 194.898 534.063 196.671 517.816 202.395C501.569 208.118 486.822 217.636 474.724 230.208C462.627 242.78 453.506 258.065 448.073 274.872C442.64 291.68 441.041 309.555 443.401 327.105H443.401Z" fill="#F78888"/>
<path d="M568.64 511.726C567.471 511.726 566.304 511.633 565.149 511.448L495.792 500.373C491.387 499.671 487.276 497.656 483.965 494.576C480.654 491.496 478.286 487.485 477.153 483.035L443.144 349.602C441.065 343.494 439.468 337.222 438.367 330.849L437.507 325.011C435.193 306.362 437.11 287.414 443.108 269.661C449.106 251.909 459.02 235.838 472.068 222.718C485.115 209.597 500.939 199.787 518.29 194.06C535.641 188.334 554.045 186.849 572.047 189.721L571.747 191.719C553.94 188.887 535.739 190.389 518.595 196.105C501.45 201.822 485.838 211.594 473.002 224.643C460.167 237.692 450.464 253.657 444.668 271.263C438.871 288.869 437.142 307.63 439.617 326.048L440.278 330.414C441.371 336.734 442.955 342.953 445.015 349.01L479.048 482.521C480.084 486.59 482.249 490.258 485.276 493.074C488.304 495.891 492.063 497.734 496.092 498.376L565.449 509.451C569.733 510.13 574.115 509.422 577.994 507.425C581.872 505.427 585.055 502.238 587.104 498.297L588.831 499.25C586.871 503.018 583.959 506.168 580.404 508.364C576.849 510.561 572.783 511.723 568.64 511.726V511.726Z" fill="#D0CDE1"/>
<path d="M586.233 356.12L544.032 475.044L546.41 475.943L588.612 357.019L586.233 356.12Z" fill="#D0CDE1"/>
<path d="M517.327 345.117L514.797 345.231L520.183 471.759L522.714 471.644L517.327 345.117Z" fill="#D0CDE1"/>
<path d="M562.776 572.218L473.903 558.028C473.242 557.919 472.65 557.543 472.256 556.985C471.863 556.426 471.699 555.73 471.801 555.047C471.904 554.364 472.264 553.751 472.802 553.341C473.341 552.932 474.015 552.759 474.677 552.86L563.551 567.051C563.881 567.101 564.198 567.219 564.484 567.397C564.771 567.574 565.02 567.809 565.218 568.086C565.416 568.364 565.559 568.679 565.638 569.013C565.718 569.348 565.733 569.696 565.682 570.036C565.63 570.377 565.515 570.704 565.341 570.998C565.167 571.292 564.938 571.548 564.668 571.751C564.398 571.954 564.092 572.099 563.768 572.18C563.443 572.26 563.106 572.273 562.776 572.218V572.218Z" fill="#F78888"/>
<path d="M565.055 552.741L476.182 538.551C475.852 538.501 475.534 538.383 475.248 538.205C474.962 538.028 474.713 537.793 474.515 537.516C474.317 537.238 474.174 536.923 474.094 536.588C474.015 536.254 474 535.906 474.051 535.565C474.102 535.225 474.218 534.898 474.392 534.604C474.566 534.31 474.794 534.054 475.064 533.851C475.334 533.648 475.641 533.503 475.965 533.422C476.29 533.342 476.627 533.329 476.957 533.384L565.83 547.574C566.16 547.625 566.477 547.742 566.764 547.92C567.05 548.098 567.299 548.332 567.497 548.609C567.695 548.887 567.838 549.202 567.917 549.537C567.997 549.871 568.012 550.219 567.961 550.56C567.91 550.9 567.794 551.227 567.62 551.521C567.446 551.816 567.218 552.071 566.948 552.274C566.678 552.477 566.371 552.623 566.047 552.703C565.722 552.783 565.385 552.796 565.055 552.741V552.741Z" fill="#F78888"/>
<path d="M567.334 533.262L478.461 519.072C477.8 518.962 477.208 518.587 476.814 518.029C476.42 517.47 476.257 516.774 476.359 516.091C476.461 515.408 476.821 514.795 477.36 514.385C477.899 513.976 478.573 513.803 479.235 513.904L568.109 528.094C568.769 528.204 569.361 528.579 569.755 529.138C570.149 529.696 570.313 530.393 570.21 531.076C570.108 531.758 569.748 532.371 569.209 532.781C568.67 533.191 567.996 533.364 567.334 533.262H567.334Z" fill="#F78888"/>
<path d="M515.577 583.554C533.206 586.368 549.016 578.51 550.891 566.001L487.053 555.809C485.178 568.317 497.949 580.739 515.577 583.554Z" fill="#F78888"/>
<path d="M547.523 331.065C543.731 330.46 540.594 327.367 538.874 325.293C538.31 324.613 537.761 323.908 537.211 323.202C535.208 320.628 533.316 318.198 530.683 316.931C524.869 314.131 518.019 318.041 512.088 322.236L510.655 320.08C517.176 315.466 524.78 311.205 531.754 314.561C534.922 316.086 537.089 318.871 539.185 321.564C539.719 322.249 540.252 322.933 540.798 323.593C542.586 325.748 546.153 329.241 549.975 328.436C551.586 327.951 553.084 327.133 554.377 326.03C555.363 325.271 556.405 324.593 557.493 324.002C559.699 322.909 562.17 322.515 564.593 322.869C567.016 323.222 569.284 324.308 571.111 325.988C571.762 326.625 572.379 327.298 572.959 328.005C574.098 329.346 575.174 330.611 576.575 331.071C578.645 331.754 580.833 330.533 583.152 329.242C585.543 327.911 588.015 326.533 590.819 326.873C590.91 326.884 591.002 326.897 591.093 326.911C596.083 327.708 598.383 333.403 599.685 337.654L597.269 338.441C595.5 332.663 593.346 329.79 590.523 329.47C588.514 329.226 586.494 330.352 584.355 331.543C581.674 333.037 578.9 334.581 575.806 333.562C573.735 332.882 572.371 331.28 571.054 329.73C570.535 329.095 569.983 328.49 569.401 327.918C567.946 326.602 566.151 325.753 564.236 325.474C562.321 325.194 560.368 325.497 558.617 326.344C557.647 326.877 556.719 327.485 555.84 328.165C554.268 329.488 552.442 330.453 550.484 330.997C549.509 331.202 548.506 331.225 547.523 331.065Z" fill="#D0CDE1"/>
</svg>
