<?xml version="1.0" encoding="UTF-8"?>
<svg width="193px" height="193px" viewBox="0 0 193 193" version="1.1" xmlns="http://www.w3.org/2000/svg" xmlns:xlink="http://www.w3.org/1999/xlink">
    <title>invision</title>
    <g id="Page-1" stroke="none" stroke-width="1" fill="none" fill-rule="evenodd">
        <g id="Artboard" transform="translate(-356.000000, -2572.000000)" fill-rule="nonzero">
            <g id="invision" transform="translate(356.000000, 2572.000000)">
                <path d="M175.504098,0 L17.4959023,0 C7.83308594,0 0,7.83308594 0,17.4959023 L0,175.504098 C0,185.166914 7.83308594,193 17.4959023,193 L175.504098,193 C185.166914,193 193,185.166914 193,175.504098 L193,17.4959023 C193,7.83308594 185.166914,0 175.504098,0" id="Path" fill="#DC395F"></path>
                <path d="M64.2861827,61.192199 C70.6987754,61.192199 76.0707346,56.1725031 76.0707346,49.5934655 C76.0707346,43.0189433 70.6987754,38 64.2861827,38 C57.87359,38 52.5031378,43.0189433 52.5031378,49.5934655 C52.5031378,56.1717505 57.87359,61.192199 64.2861827,61.192199 M39.8520193,123.294943 C39.1595196,126.237523 38.8121394,129.414908 38.8121394,132.006787 C38.8121394,142.220024 44.357412,149 56.1419639,149 C65.9153278,149 73.8387605,143.203644 79.5437828,133.84383 L76.0601851,147.806411 L95.4675088,147.806411 L106.559561,103.374953 C109.332574,92.1254161 114.704533,86.2861627 122.850259,86.2861627 C129.262098,86.2861627 133.247551,90.268806 133.247551,96.8433282 C133.247551,98.7481033 133.074238,100.822961 132.380984,103.073922 L126.661645,123.496634 C125.795078,126.439214 125.449959,129.3833 125.449959,132.150529 C125.449959,141.845993 131.167038,148.937536 143.124903,148.937536 C153.349635,148.937536 161.493854,142.363766 166,126.61306 L158.375721,123.67349 C154.562828,134.225387 151.269875,136.133172 148.670175,136.133172 C146.070476,136.133172 144.683969,134.403748 144.683969,130.944147 C144.683969,129.38631 145.032103,127.657638 145.550536,125.576007 L151.097315,105.679347 C152.483068,101.007343 153.003762,96.8644003 153.003762,93.0578604 C153.003762,78.1733709 143.99147,70.4052599 133.074238,70.4052599 C122.850259,70.4052599 112.45146,79.6160631 107.253568,89.3100215 L111.064954,71.9104161 L81.4328979,71.9104161 L77.2733783,87.2359163 L91.13769,87.2359163 L82.6001254,121.372858 C75.8959142,136.257348 63.5808728,136.498925 62.0353702,136.153492 C59.4974604,135.581533 57.8743435,134.618985 57.8743435,131.325704 C57.8743435,129.425444 58.2209702,126.695843 59.0875367,123.404819 L72.0860354,71.9104161 L39.1595196,71.9104161 L35,87.2359163 L48.6894913,87.2359163 L39.8527728,123.294943" id="Shape" fill="#FFFFFF"></path>
            </g>
        </g>
    </g>
</svg>