<?xml version="1.0" encoding="UTF-8"?>
<svg width="214px" height="193px" viewBox="0 0 214 193" version="1.1" xmlns="http://www.w3.org/2000/svg" xmlns:xlink="http://www.w3.org/1999/xlink">
    <title>Sketch_Logo</title>
    <g id="Page-1" stroke="none" stroke-width="1" fill="none" fill-rule="evenodd">
        <g id="Artboard" transform="translate(-64.000000, -2572.000000)" fill-rule="nonzero">
            <g id="Sketch_Logo" transform="translate(64.000000, 2572.000000)">
                <polygon id="Path" fill="#FDB300" points="46.6909093 6.35435269 107 0 167.309091 6.35435269 214 68.8208705 107 193 0 68.8208705"></polygon>
                <g id="Group" transform="translate(0.000000, 69.000000)">
                    <polygon id="Path" fill="#EA6C00" points="43.2529848 0 106.784371 123.968594 0 0"></polygon>
                    <polygon id="Path" fill="#EA6C00" transform="translate(160.176267, 61.984297) scale(-1, 1) translate(-160.176267, -61.984297) " points="150.037066 0 213.568452 123.968594 106.784082 0"></polygon>
                    <polygon id="Path" fill="#FDAD00" points="43.2529848 0 170.315756 0 106.784371 123.968594"></polygon>
                </g>
                <g id="Group">
                    <polygon id="Path" fill="#FDD231" points="106.784371 0 46.596599 6.36484252 43.2529848 68.9353465"></polygon>
                    <polygon id="Path" fill="#FDD231" transform="translate(138.549735, 34.467673) scale(-1, 1) translate(-138.549735, -34.467673) " points="170.315428 0 110.127657 6.36484252 106.784042 68.9353465"></polygon>
                    <polygon id="Path" fill="#FDAD00" transform="translate(190.270153, 37.650094) scale(-1, 1) translate(-190.270153, -37.650094) " points="166.971582 68.9353465 213.568724 6.36484252 210.224566 68.9353465"></polygon>
                    <polygon id="Path" fill="#FDAD00" points="0 68.9353465 46.596599 6.36484252 43.2529848 68.9353465"></polygon>
                    <polygon id="Path" fill="#FEEEB7" points="106.784371 0 43.2529848 68.9353465 170.315756 68.9353465"></polygon>
                </g>
            </g>
        </g>
    </g>
</svg>