<svg width="1181" height="853" viewBox="0 0 1181 853" fill="none" xmlns="http://www.w3.org/2000/svg">
<g clip-path="url(#clip0)">
<path d="M1036.02 415.49H1025.5V830.853H1036.02V415.49Z" fill="#3F3D56"/>
<path d="M1133.04 468.423C1133.71 613.665 1031.55 731.881 1031.55 731.881C1031.55 731.881 928.304 614.612 927.635 469.37C926.966 324.128 1029.12 205.912 1029.12 205.912C1029.12 205.912 1132.37 323.181 1133.04 468.423Z" fill="#3F3D56"/>
<path d="M825.815 610.924H820.408V824.555H825.815V610.924Z" fill="#3F3D56"/>
<path d="M875.715 638.149C876.06 712.851 823.517 773.652 823.517 773.652C823.517 773.652 770.416 713.338 770.072 638.636C769.728 563.935 822.27 503.134 822.27 503.134C822.27 503.134 875.371 563.448 875.715 638.149Z" fill="#3F3D56"/>
<path d="M932.39 853C1013.3 853 1078.88 842.944 1078.88 830.539C1078.88 818.134 1013.3 808.078 932.39 808.078C851.484 808.078 785.896 818.134 785.896 830.539C785.896 842.944 851.484 853 932.39 853Z" fill="#3F3D56"/>
<path d="M944.472 307.054C932.061 286.078 907.506 285.1 907.506 285.1C907.506 285.1 883.579 282.04 868.23 313.987C853.923 343.765 834.179 372.516 865.051 379.487L870.628 362.126L874.081 380.779C878.477 381.095 882.886 381.171 887.29 381.005C920.352 379.937 951.839 381.317 950.825 369.45C949.478 353.675 956.414 327.238 944.472 307.054Z" fill="#2F2E41"/>
<path d="M899.776 346.558C899.776 346.558 915.816 369.019 906.192 387.201C896.568 405.384 928.647 424.636 928.647 424.636L952.172 373.297C952.172 373.297 924.37 355.114 931.855 338.001L899.776 346.558Z" fill="#E1BEBE"/>
<path d="M910.469 356.184C925.823 356.184 938.271 343.733 938.271 328.375C938.271 313.016 925.823 300.566 910.469 300.566C895.115 300.566 882.667 313.016 882.667 328.375C882.667 343.733 895.115 356.184 910.469 356.184Z" fill="#E1BEBE"/>
<path d="M814.255 360.522L837.489 330.538C837.489 330.538 845.669 299.108 857.518 300.702C869.366 302.295 852.838 338.393 852.838 338.393L829.752 371.583L814.255 360.522Z" fill="#E1BEBE"/>
<path d="M931.855 759.412L939.341 798.986L955.38 803.265L951.103 756.204L931.855 759.412Z" fill="#E1BEBE"/>
<path d="M1093.32 716.629L1122.19 756.204L1133.95 761.551L1143.58 745.508L1114.7 708.073L1093.32 716.629Z" fill="#E1BEBE"/>
<path d="M925.439 407.523L907.602 384.036C907.602 384.036 873.044 390.41 869.836 393.619C866.628 396.827 878.39 455.654 878.39 455.654C878.39 455.654 880.529 471.697 890.153 480.254L899.776 486.671L978.904 470.628L981.879 435.411C982.963 422.584 981.356 409.672 977.161 397.502C972.966 385.332 966.275 374.173 957.518 364.74V364.74L943.75 366.623L925.439 407.523Z" fill="#575A89"/>
<path d="M874.113 395.758L868.766 393.619L844.173 391.48C844.173 391.48 835.618 389.341 837.757 385.062C839.896 380.784 842.034 379.714 837.757 378.645C833.48 377.575 832.411 376.506 833.48 373.297C834.549 370.088 840.965 363.671 840.965 363.671L822.787 348.697C822.787 348.697 821.803 349.393 820.213 350.681C811.187 357.99 782.63 384.361 803.54 410.732C828.133 441.75 857.004 459.932 880.529 453.515L874.113 395.758Z" fill="#575A89"/>
<path d="M897.637 481.324V496.298C897.637 496.298 888.014 514.48 891.222 531.594C894.429 548.707 895.499 557.263 895.499 557.263C895.848 571.818 898.371 586.238 902.984 600.046C910.469 621.438 885.875 761.552 916.885 763.691C947.894 765.83 965.003 767.969 974.626 757.273C984.25 746.577 958.587 562.611 958.587 562.611C958.587 562.611 1046.27 745.508 1064.45 738.021C1082.62 730.534 1128.6 713.421 1123.26 703.795C1117.91 694.168 983.181 480.254 983.181 480.254L978.904 470.628L897.637 481.324Z" fill="#2F2E41"/>
<path d="M948.963 791.499C948.963 791.499 931.855 790.43 931.855 795.778C931.855 801.126 923.3 819.308 923.3 819.308C923.3 819.308 916.885 840.7 933.993 838.561C951.102 836.421 961.795 817.169 961.795 817.169L957.518 796.847L948.963 791.499Z" fill="#F78888"/>
<path d="M1127.54 754.064C1127.54 754.064 1112.57 744.438 1113.63 750.856C1114.7 757.273 1115.77 774.386 1123.26 775.456C1130.74 776.526 1153.2 782.943 1154.27 785.082C1155.34 787.221 1181 795.778 1181 781.873C1181 767.969 1164.96 757.273 1164.96 757.273L1146.78 743.369C1146.78 743.369 1135.02 742.299 1132.88 749.786C1130.74 757.273 1127.54 754.064 1127.54 754.064Z" fill="#F78888"/>
<path d="M910.511 302.965C920.317 302.965 928.265 295.014 928.265 285.206C928.265 275.398 920.317 267.447 910.511 267.447C900.706 267.447 892.757 275.398 892.757 285.206C892.757 295.014 900.706 302.965 910.511 302.965Z" fill="#2F2E41"/>
<path d="M890.888 280.533C890.889 276.147 892.512 271.916 895.445 268.656C898.378 265.395 902.413 263.336 906.773 262.874C906.153 262.808 905.529 262.775 904.905 262.774C900.196 262.774 895.68 264.645 892.35 267.975C889.021 271.306 887.15 275.823 887.15 280.533C887.15 285.243 889.021 289.76 892.35 293.09C895.68 296.421 900.196 298.292 904.905 298.292C905.529 298.291 906.153 298.258 906.773 298.192C902.413 297.73 898.378 295.671 895.445 292.41C892.512 289.15 890.889 284.919 890.888 280.533V280.533Z" fill="#2F2E41"/>
<path d="M938.984 305.033L914.726 292.322L881.225 297.522L874.294 328.142L891.548 327.478L896.368 316.229V327.292L904.329 326.987L908.95 309.077L911.838 328.142L940.14 327.564L938.984 305.033Z" fill="#2F2E41"/>
<path d="M937.532 483.801L900.12 484.813C900.12 484.813 868.198 491.026 869.989 478.138C871.78 465.25 902.922 469.758 902.922 469.758L937.012 464.556L937.532 483.801Z" fill="#E1BEBE"/>
<path d="M967.132 362.927C969.012 362.643 970.933 363.039 972.547 364.044C974.162 365.05 975.364 366.599 975.939 368.412C983.263 391.498 1005.83 468.752 983.408 479.351C957.003 491.835 937.734 491.286 937.734 491.286L927.42 465.886L936.809 457.072L946.833 392.603L951.637 365.275L967.132 362.927Z" fill="#575A89"/>
<path opacity="0.4" d="M960.192 405.919L955.914 448.702L918.489 464.745L960.192 455.119V405.919Z" fill="black"/>
<path d="M758.358 264.679C770.412 267.874 780.841 275.452 787.606 285.931L791.103 291.349L791.279 291.573L852.641 309.533C853.765 309.862 854.716 310.62 855.288 311.643C855.86 312.666 856.008 313.873 855.7 315.004L850.936 332.476C850.781 333.045 850.514 333.577 850.153 334.043C849.791 334.509 849.34 334.899 848.827 335.19C848.314 335.481 847.749 335.667 847.164 335.739C846.578 335.811 845.985 335.766 845.417 335.607L784.04 318.447L784.038 318.449L777.874 320.78C766.523 325.072 754.073 325.496 742.457 321.984V321.984L758.358 264.679Z" fill="#3F3D56"/>
<path d="M822.978 315.348C823.559 313.362 821.011 310.868 817.287 309.778C813.563 308.688 810.073 309.415 809.492 311.401C808.911 313.388 811.458 315.882 815.182 316.972C818.906 318.062 822.397 317.335 822.978 315.348Z" fill="#575A89"/>
<path d="M819.844 317.18C821.266 317.18 822.42 316.027 822.42 314.604C822.42 313.181 821.266 312.027 819.844 312.027C818.421 312.027 817.268 313.181 817.268 314.604C817.268 316.027 818.421 317.18 819.844 317.18Z" fill="#3F3D56"/>
<path d="M763.487 297.772C768.604 281.988 766.967 267.316 759.831 265.002C752.695 262.687 742.763 273.607 737.646 289.391C732.529 305.175 734.166 319.847 741.302 322.161C748.438 324.476 758.37 313.557 763.487 297.772Z" fill="#90CCF4"/>
<path opacity="0.4" d="M761.58 297.214C766.51 282.005 765.169 267.831 758.681 264.747C759.072 264.796 759.457 264.881 759.831 265.002C766.967 267.316 768.604 281.988 763.487 297.772C758.37 313.557 748.438 324.476 741.302 322.161C741.043 322.077 740.79 321.975 740.544 321.858C747.564 322.752 756.733 312.167 761.58 297.214Z" fill="black"/>
<path d="M759.164 264.735L619.902 156.681C595.276 137.436 571.644 116.95 549.098 95.3035C509.401 57.4538 455.51 27.1923 392.767 11.0808C240.327 -28.063 119.564 41.3438 64.6373 143.257C-19.2963 298.991 -83.6203 551.704 288.541 417.185C369.932 387.766 452.319 384.639 514.788 369.142L740.986 322.492L759.164 264.735Z" fill="#90CCF4"/>
<path d="M341.071 82.9081C345.205 82.9081 348.556 79.556 348.556 75.4211C348.556 71.2861 345.205 67.9341 341.071 67.9341C336.937 67.9341 333.586 71.2861 333.586 75.4211C333.586 79.556 336.937 82.9081 341.071 82.9081Z" fill="#F2F2F2"/>
<path d="M486.473 92.7266H484.525V90.7778H484.145V92.7266H482.196V93.1074H484.145V95.0561H484.525V93.1074H486.473V92.7266Z" fill="#F2F2F2"/>
<path d="M682.154 255.302H680.206V253.353H679.825V255.302H677.877V255.683H679.825V257.631H680.206V255.683H682.154V255.302Z" fill="#F2F2F2"/>
<path d="M668.253 305.571H666.305V303.623H665.924V305.571H663.976V305.952H665.924V307.901H666.305V305.952H668.253V305.571Z" fill="#F2F2F2"/>
<path d="M70.5184 348.355H68.5701V346.406H68.1895V348.355H66.2412V348.735H68.1895V350.684H68.5701V348.735H70.5184V348.355Z" fill="#F2F2F2"/>
<path d="M156.062 115.188H154.114V113.239H153.733V115.188H151.785V115.568H153.733V117.517H154.114V115.568H156.062V115.188Z" fill="#F2F2F2"/>
<path d="M488.612 314.128H486.664V312.179H486.283V314.128H484.335V314.509H486.283V316.457H486.664V314.509H488.612V314.128Z" fill="#F2F2F2"/>
<path d="M284.378 46.7349H282.43V44.7861H282.049V46.7349H280.101V47.1157H282.049V49.0644H282.43V47.1157H284.378V46.7349Z" fill="#F2F2F2"/>
<path d="M285.127 200.73L282.699 201.104C283.458 205.96 284.057 210.923 284.496 215.832L286.944 215.618C286.506 210.645 285.896 205.639 285.127 200.73Z" fill="#E6E6E6"/>
<path d="M278.485 171.488L276.133 172.204C277.555 176.911 278.827 181.734 279.907 186.537L282.313 185.991C281.212 181.135 279.918 176.258 278.485 171.488Z" fill="#E6E6E6"/>
<path d="M267.889 143.443L265.654 144.47C267.707 148.952 269.632 153.551 271.375 158.15L273.674 157.284C271.91 152.631 269.974 147.968 267.889 143.443Z" fill="#E6E6E6"/>
<path d="M253.561 117.153L251.486 118.469C254.127 122.619 256.662 126.919 259.014 131.229L261.174 130.052C258.8 125.689 256.234 121.346 253.561 117.153Z" fill="#E6E6E6"/>
<path d="M235.746 93.0562L233.875 94.6498C237.061 98.3933 240.162 102.308 243.092 106.265L245.06 104.8C242.108 100.8 238.975 96.8424 235.746 93.0562Z" fill="#E6E6E6"/>
<path d="M214.81 71.6006L213.174 73.4296C216.852 76.7131 220.456 80.1679 223.888 83.6868L225.652 81.9647C222.177 78.4031 218.531 74.9162 214.81 71.6006Z" fill="#E6E6E6"/>
<path d="M191.157 53.1821L189.777 55.2143C193.862 57.9631 197.904 60.8937 201.786 63.9206L203.304 61.9846C199.369 58.9257 195.284 55.9631 191.157 53.1821Z" fill="#E6E6E6"/>
<path d="M169.632 40.3901V43.171C172.187 44.508 174.722 45.9091 177.202 47.3424L178.432 45.2139C175.545 43.5453 172.612 41.9374 169.632 40.3901Z" fill="#E6E6E6"/>
<path d="M285.292 231.005L287.75 230.96C287.795 233.443 287.798 235.938 287.76 238.379L285.302 238.34C285.34 235.928 285.336 233.46 285.292 231.005Z" fill="#E6E6E6"/>
<path d="M140.771 411.436L138.344 411.81C139.103 416.666 139.702 421.629 140.14 426.538L142.589 426.324C142.15 421.35 141.541 416.345 140.771 411.436Z" fill="#E6E6E6"/>
<path d="M134.131 382.193L131.778 382.91C133.2 387.616 134.473 392.44 135.553 397.242L137.959 396.697C136.857 391.841 135.564 386.964 134.131 382.193Z" fill="#E6E6E6"/>
<path d="M123.535 354.149L121.3 355.176C123.353 359.658 125.278 364.257 127.02 368.856L129.319 367.99C127.555 363.337 125.62 358.674 123.535 354.149Z" fill="#E6E6E6"/>
<path d="M109.206 327.859L107.132 329.175C109.773 333.325 112.307 337.625 114.66 341.935L116.82 340.758C114.446 336.395 111.879 332.052 109.206 327.859Z" fill="#E6E6E6"/>
<path d="M91.3918 303.762L89.5205 305.355C92.707 309.099 95.8079 313.014 98.7378 316.971L100.705 315.506C97.754 311.505 94.6209 307.548 91.3918 303.762Z" fill="#E6E6E6"/>
<path d="M70.4554 282.306L68.8193 284.135C72.4977 287.419 76.1012 290.873 79.5336 294.392L81.298 292.67C77.8229 289.109 74.1765 285.622 70.4554 282.306Z" fill="#E6E6E6"/>
<path d="M46.8022 263.888L45.4229 265.92C49.5075 268.669 53.5495 271.6 57.431 274.627L58.9494 272.691C55.0144 269.632 50.9297 266.669 46.8022 263.888Z" fill="#E6E6E6"/>
<path d="M25.2773 251.096V253.877C27.833 255.214 30.3672 256.615 32.8479 258.048L34.0776 255.92C31.1905 254.251 28.2571 252.643 25.2773 251.096Z" fill="#E6E6E6"/>
<path d="M140.938 441.711L143.395 441.666C143.441 444.149 143.444 446.644 143.405 449.085L140.948 449.046C140.985 446.634 140.982 444.166 140.938 441.711Z" fill="#E6E6E6"/>
<path d="M634.785 305.548L632.357 305.922C633.117 310.778 633.715 315.741 634.154 320.65L636.602 320.436C636.164 315.463 635.555 310.457 634.785 305.548Z" fill="#E6E6E6"/>
<path d="M628.144 276.306L625.792 277.022C627.214 281.728 628.487 286.552 629.567 291.355L631.972 290.809C630.871 285.953 629.577 281.076 628.144 276.306Z" fill="#E6E6E6"/>
<path d="M617.548 248.262L615.313 249.288C617.366 253.77 619.291 258.369 621.034 262.968L623.333 262.102C621.568 257.449 619.633 252.786 617.548 248.262Z" fill="#E6E6E6"/>
<path d="M603.219 221.972L601.145 223.287C603.786 227.437 606.32 231.737 608.672 236.047L610.832 234.871C608.459 230.507 605.892 226.164 603.219 221.972Z" fill="#E6E6E6"/>
<path d="M585.405 197.874L583.534 199.468C586.72 203.211 589.821 207.126 592.751 211.083L594.719 209.618C591.767 205.618 588.634 201.66 585.405 197.874Z" fill="#E6E6E6"/>
<path d="M564.468 176.418L562.832 178.247C566.51 181.531 570.114 184.986 573.546 188.505L575.311 186.783C571.835 183.221 568.189 179.734 564.468 176.418Z" fill="#E6E6E6"/>
<path d="M540.815 158L539.436 160.033C543.521 162.781 547.563 165.712 551.444 168.739L552.963 166.803C549.028 163.744 544.943 160.781 540.815 158Z" fill="#E6E6E6"/>
<path d="M519.291 145.208V147.989C521.846 149.326 524.38 150.727 526.861 152.161L528.091 150.032C525.204 148.364 522.27 146.756 519.291 145.208Z" fill="#E6E6E6"/>
<path d="M634.95 335.823L637.408 335.778C637.453 338.261 637.457 340.757 637.418 343.197L634.961 343.159C634.998 340.746 634.995 338.278 634.95 335.823Z" fill="#E6E6E6"/>
<path d="M159.64 213.802H157.828V211.988H157.474V213.802H155.66V214.155H157.474V215.969H157.828V214.155H159.64V213.802Z" fill="#F2F2F2"/>
<path d="M138.745 323.28H136.932V321.466H136.578V323.28H134.765V323.634H136.578V325.447H136.932V323.634H138.745V323.28Z" fill="#F2F2F2"/>
<path d="M77.435 419.228H75.6215V417.416H75.2675V419.228H73.4551V419.582H75.2675V421.396H75.6215V419.582H77.435V419.228Z" fill="#F2F2F2"/>
<path d="M247.988 297.537C230.459 271.473 222.848 239.989 226.535 208.794C230.222 177.599 244.964 148.758 268.086 127.502C291.208 106.246 321.181 93.9818 352.567 92.934C383.954 91.8862 414.677 102.124 439.165 121.791C463.653 141.457 480.284 169.251 486.042 200.131C491.801 231.011 486.305 262.932 470.552 290.107C454.799 317.281 429.832 337.909 400.178 348.25C370.524 358.591 338.147 357.96 308.919 346.471C307.024 353.236 303.481 359.426 298.608 364.486C293.735 369.546 287.684 373.318 280.996 375.465C274.308 377.612 267.192 378.067 260.285 376.789C253.379 375.51 246.897 372.539 241.42 368.14C235.943 363.741 231.642 358.053 228.902 351.584C226.162 345.115 225.068 338.067 225.719 331.071C226.37 324.076 228.745 317.351 232.631 311.498C236.517 305.646 241.794 300.849 247.988 297.537V297.537Z" fill="#3F3D56"/>
<path d="M356.211 149.138C386.316 149.138 407.028 165.84 407.028 189.85C407.028 205.75 399.321 216.751 384.47 225.504C370.501 233.614 365.765 239.556 365.765 249.835C365.765 250.668 365.601 251.493 365.282 252.262C364.963 253.032 364.496 253.731 363.907 254.32C363.318 254.909 362.619 255.377 361.85 255.696C361.08 256.014 360.255 256.178 359.422 256.178H344.032C342.388 256.178 340.809 255.54 339.627 254.398C338.444 253.256 337.751 251.699 337.694 250.056L337.667 249.273C336.302 232.731 342.082 222.452 356.613 213.94C370.18 205.83 375.88 200.691 375.88 190.733C375.88 180.776 366.246 173.469 354.285 173.469C345.193 173.469 337.998 177.895 334.698 185.122C333.538 187.569 331.702 189.632 329.406 191.067C327.111 192.503 324.453 193.251 321.746 193.223V193.223C311.319 193.223 304.43 182.131 309.307 172.911C317.021 158.327 333.298 149.138 356.211 149.138ZM335.098 286.773C335.098 277.538 342.805 270.231 352.278 270.231C361.831 270.231 369.538 277.458 369.538 286.773C369.538 296.088 361.831 303.315 352.278 303.315C342.724 303.315 335.098 296.088 335.098 286.773V286.773Z" fill="#90CCF4"/>
</g>
<defs>
<clipPath id="clip0">
<rect width="1181" height="853" fill="white"/>
</clipPath>
</defs>
</svg>
