<svg width="1113" height="860" viewBox="0 0 1113 860" fill="none" xmlns="http://www.w3.org/2000/svg">
<g clip-path="url(#clip0)">
<path opacity="0.1" d="M347.523 860C478.99 860 585.566 843.838 585.566 823.902C585.566 803.966 478.99 787.805 347.523 787.805C216.055 787.805 109.479 803.966 109.479 823.902C109.479 843.838 216.055 860 347.523 860Z" fill="#90CCF4"/>
<path opacity="0.1" d="M343.675 37.9442C381.431 4.65443 440.707 -2.16397 494.67 0.523281C664.137 8.86579 817.096 89.754 949.448 181.271C997.357 214.41 1044.52 250.107 1075.62 295.74C1138.92 388.61 1120.14 517.277 1032.12 593.784C1002.17 619.854 965.865 639.778 928.6 657.466C862.329 688.92 790.826 714.169 715.614 721.358C661.982 726.482 607.688 722.311 554.366 715.161C405.386 695.187 259.152 650.988 136.593 575.414C82.8399 542.305 32.1743 501.054 10.0137 447.419C-12.1469 393.784 1.99541 325.821 56.9308 294.085C79.6326 280.95 106.775 275.034 133.345 269.449C172.434 261.257 212.205 253.175 247.506 236.52C283.959 219.304 327.127 186.024 319.911 147.941C312.163 107.061 305.929 71.1739 343.675 37.9442Z" fill="#90CCF4"/>
<path d="M922.936 88.6985C929.712 133.379 910.859 173.297 910.859 173.297C910.859 173.297 881.02 140.779 874.225 96.0985C870.426 71.0309 874.686 47.4873 879.156 31.6246C879.72 29.5645 880.87 27.7126 882.465 26.2936C884.061 24.8746 886.034 23.9497 888.146 23.6312C890.257 23.3126 892.415 23.6141 894.358 24.4991C896.301 25.3841 897.946 26.8144 899.092 28.6164C908.082 42.4137 919.137 63.6409 922.936 88.6985Z" fill="#90CCF4"/>
<path d="M1048.92 159.911C1055.64 159.88 1062.33 160.726 1068.82 162.428C1079.75 165.235 1079.92 180.727 1069.05 183.775C1062.59 185.615 1055.93 186.606 1049.21 186.723C1024.63 186.994 1004.55 173.798 1004.55 173.798C1004.55 173.798 1024.34 160.182 1048.92 159.911Z" fill="#90CCF4"/>
<path d="M979.786 91.9882C956.904 117.146 952.062 150.025 952.062 150.025C952.062 150.025 984.316 142.103 1007.19 116.936C1017.79 105.274 1024.53 91.9581 1028.7 81.0286C1029.49 78.9597 1029.64 76.7008 1029.12 74.546C1028.61 72.3913 1027.47 70.4405 1025.83 68.9475C1024.2 67.4545 1022.15 66.4886 1019.96 66.1753C1017.77 65.8621 1015.53 66.2161 1013.54 67.1913C1003 72.3753 990.39 80.3267 979.786 91.9882Z" fill="#90CCF4"/>
<path d="M1007.96 87.2461H532.475C521.515 87.2461 512.63 96.1348 512.63 107.1V688.037C512.63 699.002 521.515 707.89 532.475 707.89H1007.96C1018.92 707.89 1027.81 699.002 1027.81 688.037V107.1C1027.81 96.1348 1018.92 87.2461 1007.96 87.2461Z" fill="#464353"/>
<path opacity="0.1" d="M983.364 149.854H557.071V645.28H983.364V149.854Z" fill="#90CCF4"/>
<path d="M770.218 696.099C780.237 696.099 788.359 687.973 788.359 677.95C788.359 667.926 780.237 659.801 770.218 659.801C760.198 659.801 752.076 667.926 752.076 677.95C752.076 687.973 760.198 696.099 770.218 696.099Z" fill="white"/>
<path d="M770.218 132.117C768.523 132.117 766.866 131.614 765.457 130.672C764.048 129.73 762.949 128.391 762.301 126.825C761.652 125.258 761.482 123.534 761.813 121.871C762.144 120.208 762.96 118.681 764.158 117.482C765.357 116.283 766.884 115.466 768.546 115.135C770.208 114.805 771.932 114.974 773.497 115.623C775.063 116.272 776.402 117.371 777.343 118.781C778.285 120.191 778.788 121.848 778.788 123.544C778.782 125.816 777.878 127.993 776.272 129.6C774.666 131.207 772.489 132.112 770.218 132.117V132.117Z" fill="white"/>
<path d="M770.217 115.472C771.813 115.472 773.373 115.945 774.7 116.832C776.027 117.719 777.061 118.979 777.672 120.454C778.282 121.929 778.442 123.552 778.131 125.118C777.819 126.684 777.051 128.122 775.923 129.251C774.794 130.38 773.357 131.149 771.792 131.46C770.226 131.771 768.604 131.612 767.13 131.001C765.656 130.39 764.395 129.355 763.509 128.028C762.622 126.7 762.149 125.14 762.149 123.543C762.152 121.403 763.003 119.352 764.515 117.839C766.028 116.326 768.078 115.474 770.217 115.472ZM770.217 114.469C768.421 114.459 766.663 114.983 765.164 115.974C763.666 116.965 762.496 118.379 761.802 120.036C761.107 121.693 760.921 123.519 761.265 125.283C761.609 127.046 762.469 128.668 763.736 129.942C765.002 131.216 766.618 132.085 768.379 132.44C770.14 132.794 771.967 132.617 773.627 131.932C775.287 131.246 776.707 130.083 777.706 128.59C778.705 127.097 779.238 125.34 779.238 123.543C779.245 122.354 779.016 121.175 778.566 120.074C778.115 118.974 777.452 117.973 776.614 117.13C775.775 116.286 774.779 115.617 773.681 115.161C772.583 114.704 771.406 114.469 770.217 114.469V114.469Z" fill="white"/>
<path d="M660.978 303.328H581.186C578.806 303.328 576.876 305.258 576.876 307.64V419.261C576.876 421.642 578.806 423.573 581.186 423.573H660.978C663.359 423.573 665.288 421.642 665.288 419.261V307.64C665.288 305.258 663.359 303.328 660.978 303.328Z" fill="white" stroke="white" stroke-miterlimit="10"/>
<path opacity="0.5" d="M649.843 333.631H592.322C588.369 333.631 585.166 336.836 585.166 340.79V364.624C585.166 368.578 588.369 371.784 592.322 371.784H649.843C653.795 371.784 656.999 368.578 656.999 364.624V340.79C656.999 336.836 653.795 333.631 649.843 333.631Z" fill="#90CCF4"/>
<path d="M640.311 387.346H601.854C600.918 387.346 600.16 388.104 600.16 389.04V391.577C600.16 392.513 600.918 393.272 601.854 393.272H640.311C641.247 393.272 642.005 392.513 642.005 391.577V389.04C642.005 388.104 641.247 387.346 640.311 387.346Z" fill="#90CCF4"/>
<path d="M810.45 303.328H730.657C728.277 303.328 726.348 305.258 726.348 307.64V419.261C726.348 421.642 728.277 423.573 730.657 423.573H810.45C812.83 423.573 814.759 421.642 814.759 419.261V307.64C814.759 305.258 812.83 303.328 810.45 303.328Z" fill="white" stroke="white" stroke-miterlimit="10"/>
<path opacity="0.5" d="M790.504 322.109H751.064C750.256 322.109 749.601 322.765 749.601 323.573V343.146C749.601 343.955 750.256 344.61 751.064 344.61H790.504C791.312 344.61 791.967 343.955 791.967 343.146V323.573C791.967 322.765 791.312 322.109 790.504 322.109Z" fill="#90CCF4"/>
<path d="M795.796 365.697H745.1C744.165 365.697 743.406 366.456 743.406 367.392V369.929C743.406 370.865 744.165 371.623 745.1 371.623H795.796C796.731 371.623 797.49 370.865 797.49 369.929V367.392C797.49 366.456 796.731 365.697 795.796 365.697Z" fill="#90CCF4"/>
<path d="M795.796 376.746H745.1C744.165 376.746 743.406 377.505 743.406 378.441V380.977C743.406 381.913 744.165 382.672 745.1 382.672H795.796C796.731 382.672 797.49 381.913 797.49 380.977V378.441C797.49 377.505 796.731 376.746 795.796 376.746Z" fill="#90CCF4"/>
<path d="M959.249 217.908H879.457C877.077 217.908 875.147 219.839 875.147 222.22V333.841C875.147 336.222 877.077 338.153 879.457 338.153H959.249C961.63 338.153 963.559 336.222 963.559 333.841V222.22C963.559 219.839 961.63 217.908 959.249 217.908Z" fill="white" stroke="white" stroke-miterlimit="10"/>
<path opacity="0.5" d="M946.67 236.568H892.036C891.227 236.568 890.572 237.224 890.572 238.032V261.977C890.572 262.785 891.227 263.441 892.036 263.441H946.67C947.478 263.441 948.134 262.785 948.134 261.977V238.032C948.134 237.224 947.478 236.568 946.67 236.568Z" fill="#90CCF4"/>
<path opacity="0.5" d="M946.67 275.623H892.036C891.227 275.623 890.572 276.278 890.572 277.087V301.032C890.572 301.84 891.227 302.496 892.036 302.496H946.67C947.478 302.496 948.134 301.84 948.134 301.032V277.087C948.134 276.278 947.478 275.623 946.67 275.623Z" fill="#90CCF4"/>
<path d="M901.016 324.154H889.81C887.69 324.154 885.972 325.874 885.972 327.995V328.606C885.972 330.727 887.69 332.447 889.81 332.447H901.016C903.136 332.447 904.855 330.727 904.855 328.606V327.995C904.855 325.874 903.136 324.154 901.016 324.154Z" fill="#90CCF4"/>
<path d="M924.961 324.154H913.755C911.635 324.154 909.917 325.874 909.917 327.995V328.606C909.917 330.727 911.635 332.447 913.755 332.447H924.961C927.081 332.447 928.8 330.727 928.8 328.606V327.995C928.8 325.874 927.081 324.154 924.961 324.154Z" fill="#90CCF4"/>
<path d="M948.906 324.154H937.7C935.58 324.154 933.861 325.874 933.861 327.995V328.606C933.861 330.727 935.58 332.447 937.7 332.447H948.906C951.026 332.447 952.745 330.727 952.745 328.606V327.995C952.745 325.874 951.026 324.154 948.906 324.154Z" fill="#90CCF4"/>
<path d="M959.039 388.748H879.247C876.867 388.748 874.937 390.678 874.937 393.06V504.681C874.937 507.062 876.867 508.992 879.247 508.992H959.039C961.419 508.992 963.349 507.062 963.349 504.681V393.06C963.349 390.678 961.419 388.748 959.039 388.748Z" fill="white" stroke="white" stroke-miterlimit="10"/>
<path opacity="0.5" d="M906.719 402.807H883.226C882.417 402.807 881.762 403.462 881.762 404.271V428.215C881.762 429.024 882.417 429.679 883.226 429.679H906.719C907.527 429.679 908.182 429.024 908.182 428.215V404.271C908.182 403.462 907.527 402.807 906.719 402.807Z" fill="#90CCF4"/>
<path d="M944.496 446.043H893.8C892.864 446.043 892.106 446.802 892.106 447.738V450.274C892.106 451.21 892.864 451.969 893.8 451.969H944.496C945.431 451.969 946.189 451.21 946.189 450.274V447.738C946.189 446.802 945.431 446.043 944.496 446.043Z" fill="#90CCF4"/>
<path d="M944.496 458.025H893.8C892.864 458.025 892.106 458.784 892.106 459.72V462.257C892.106 463.193 892.864 463.951 893.8 463.951H944.496C945.431 463.951 946.189 463.193 946.189 462.257V459.72C946.189 458.784 945.431 458.025 944.496 458.025Z" fill="#90CCF4"/>
<path d="M944.496 470.008H893.8C892.864 470.008 892.106 470.766 892.106 471.702V474.239C892.106 475.175 892.864 475.934 893.8 475.934H944.496C945.431 475.934 946.189 475.175 946.189 474.239V471.702C946.189 470.766 945.431 470.008 944.496 470.008Z" fill="#90CCF4"/>
<path d="M716.154 360.582L714.801 361.233L703.836 366.508L702.834 366.979C702.767 367.01 702.695 367.027 702.621 367.029C702.547 367.032 702.474 367.019 702.405 366.991C702.337 366.964 702.275 366.923 702.222 366.871C702.17 366.819 702.129 366.757 702.102 366.688C702.091 366.622 702.091 366.554 702.102 366.488V363.369C702.102 363.228 702.046 363.093 701.947 362.993C701.847 362.894 701.712 362.838 701.571 362.838H674.92C674.778 362.838 674.642 362.782 674.541 362.683C674.44 362.583 674.382 362.448 674.379 362.306V357.905C674.382 357.763 674.44 357.627 674.541 357.528C674.642 357.429 674.778 357.373 674.92 357.373H701.601C701.743 357.37 701.878 357.312 701.977 357.211C702.077 357.11 702.132 356.973 702.132 356.832V353.643C702.122 353.577 702.122 353.509 702.132 353.442C702.16 353.375 702.202 353.314 702.255 353.263C702.307 353.211 702.37 353.172 702.438 353.145C702.506 353.119 702.579 353.107 702.653 353.11C702.726 353.113 702.798 353.13 702.864 353.162L703.866 353.633L714.801 358.957L716.154 359.619C716.246 359.662 716.323 359.73 716.377 359.815C716.431 359.9 716.46 359.999 716.46 360.1C716.46 360.201 716.431 360.3 716.377 360.386C716.323 360.471 716.246 360.539 716.154 360.582V360.582Z" fill="white" stroke="white" stroke-miterlimit="10"/>
<path d="M864.523 333.541L863.641 334.754L856.465 344.54L855.833 345.413C855.788 345.471 855.732 345.519 855.668 345.555C855.604 345.591 855.534 345.614 855.461 345.622C855.388 345.63 855.315 345.624 855.244 345.604C855.174 345.583 855.108 345.549 855.051 345.503C855 345.459 854.959 345.404 854.931 345.343L853.468 342.595C853.4 342.469 853.285 342.375 853.148 342.332C853.012 342.289 852.864 342.3 852.736 342.365L829.182 354.908C829.12 354.942 829.053 354.962 828.983 354.969C828.913 354.976 828.843 354.969 828.775 354.949C828.708 354.928 828.646 354.894 828.592 354.85C828.538 354.805 828.493 354.75 828.461 354.688L826.396 350.787C826.363 350.725 826.342 350.658 826.335 350.588C826.328 350.518 826.335 350.447 826.356 350.38C826.376 350.313 826.41 350.251 826.455 350.197C826.499 350.143 826.554 350.098 826.616 350.065L850.17 337.542C850.232 337.509 850.287 337.464 850.332 337.41C850.377 337.356 850.41 337.294 850.431 337.227C850.451 337.159 850.458 337.089 850.451 337.019C850.445 336.949 850.424 336.881 850.391 336.82L848.897 334.002C848.859 333.946 848.838 333.879 848.837 333.811C848.827 333.738 848.833 333.664 848.854 333.593C848.875 333.522 848.911 333.456 848.959 333.4C849.008 333.344 849.067 333.299 849.134 333.268C849.201 333.237 849.274 333.221 849.348 333.22H850.421L862.568 332.779L864.072 332.729C864.167 332.729 864.26 332.754 864.341 332.802C864.423 332.85 864.49 332.919 864.536 333.002C864.582 333.085 864.605 333.178 864.603 333.273C864.601 333.368 864.573 333.46 864.523 333.541V333.541Z" fill="white" stroke="white" stroke-miterlimit="10"/>
<path d="M864.443 384.938H862.949H850.811H849.739C849.666 384.938 849.593 384.924 849.526 384.894C849.459 384.865 849.398 384.822 849.348 384.769C849.299 384.715 849.26 384.652 849.236 384.582C849.212 384.513 849.202 384.44 849.208 384.367C849.21 384.3 849.227 384.235 849.258 384.176L850.601 381.359C850.632 381.295 850.649 381.227 850.653 381.157C850.657 381.087 850.647 381.017 850.624 380.95C850.601 380.884 850.564 380.823 850.517 380.771C850.471 380.719 850.414 380.677 850.35 380.647L826.295 369.096C826.167 369.033 826.068 368.922 826.021 368.786C825.974 368.651 825.983 368.503 826.045 368.374L827.949 364.413C827.978 364.349 828.02 364.291 828.072 364.243C828.124 364.195 828.185 364.159 828.251 364.135C828.318 364.112 828.389 364.102 828.459 364.107C828.529 364.111 828.598 364.13 828.661 364.162L852.716 375.723C852.845 375.783 852.992 375.79 853.127 375.743C853.262 375.697 853.373 375.6 853.437 375.473L854.821 372.595C854.858 372.512 854.916 372.441 854.989 372.387C855.062 372.334 855.148 372.3 855.238 372.29C855.328 372.28 855.419 372.293 855.502 372.329C855.586 372.365 855.658 372.422 855.713 372.495L856.384 373.327L863.931 382.873L864.863 384.056C864.932 384.134 864.977 384.231 864.991 384.334C865.006 384.437 864.989 384.542 864.944 384.636C864.9 384.73 864.828 384.809 864.739 384.863C864.65 384.916 864.547 384.943 864.443 384.938V384.938Z" fill="white" stroke="white" stroke-miterlimit="10"/>
<path d="M425.16 608.291L425.08 611.229L419.968 791.786H411.369L415.588 611.229L415.668 607.84L425.16 608.291Z" fill="#504F60"/>
<path opacity="0.1" d="M425.16 608.291L425.08 611.229L419.968 791.786H411.369L415.588 611.229L415.668 607.84L425.16 608.291Z" fill="black"/>
<path d="M474.924 761.244L468.489 761.224L372.821 761.023L367.729 761.013L370.436 752.641H474.243L474.924 761.244Z" fill="#504F60"/>
<path opacity="0.1" d="M425.16 608.291L425.08 611.229H415.588L415.669 607.84L425.16 608.291Z" fill="black"/>
<path d="M428.789 603.879H412.842V609.875H428.789V603.879Z" fill="#504F60"/>
<path opacity="0.1" d="M373.673 752.641L372.821 761.023L367.729 761.013L370.436 752.641H373.673Z" fill="black"/>
<path d="M387.405 603.77L387.134 606.367L365.916 815.761L356.193 815.31L378.554 606.367L378.805 603.99L387.405 603.77Z" fill="#504F60"/>
<path opacity="0.1" d="M474.924 761.244L468.489 761.224L467.617 752.641H474.242L474.924 761.244Z" fill="black"/>
<path d="M485.107 815.31L475.375 815.761L454.157 606.367L453.896 603.77L462.486 603.99L462.736 606.367L485.107 815.31Z" fill="#504F60"/>
<path d="M526.491 397.303H312.092V602.968H526.491V397.303Z" fill="white"/>
<path d="M569.63 397.303H269.204C266.918 397.303 265.064 399.157 265.064 401.444V598.826C265.064 601.114 266.918 602.968 269.204 602.968H569.63C571.916 602.968 573.769 601.114 573.769 598.826V401.444C573.769 399.157 571.916 397.303 569.63 397.303Z" fill="white"/>
<path d="M423.466 328.527V378.191H415.107V328.527C415.107 327.418 415.548 326.355 416.332 325.57C417.115 324.786 418.178 324.346 419.287 324.346C420.395 324.346 421.459 324.786 422.242 325.57C423.026 326.355 423.466 327.418 423.466 328.527V328.527Z" fill="#504F60"/>
<path opacity="0.1" d="M423.477 373.668H415.107V378.19H423.477V373.668Z" fill="black"/>
<path d="M426.754 377.057V393.461H411.83V377.057C411.83 376.525 412.041 376.015 412.417 375.639C412.793 375.263 413.303 375.052 413.835 375.052H424.689C424.958 375.044 425.225 375.09 425.475 375.187C425.725 375.284 425.953 375.43 426.146 375.617C426.338 375.804 426.492 376.028 426.596 376.275C426.7 376.523 426.754 376.789 426.754 377.057V377.057Z" fill="#504F60"/>
<path opacity="0.1" d="M419.287 388.599C421.036 388.599 422.454 387.18 422.454 385.43C422.454 383.68 421.036 382.262 419.287 382.262C417.538 382.262 416.12 383.68 416.12 385.43C416.12 387.18 417.538 388.599 419.287 388.599Z" fill="black"/>
<path d="M419.287 387.917C421.036 387.917 422.454 386.499 422.454 384.749C422.454 382.999 421.036 381.58 419.287 381.58C417.538 381.58 416.12 382.999 416.12 384.749C416.12 386.499 417.538 387.917 419.287 387.917Z" fill="#3F3D56"/>
<path opacity="0.1" d="M426.754 391.426H411.83V393.461H426.754V391.426Z" fill="black"/>
<path opacity="0.1" d="M432.858 394.143H405.716V398.665H432.858V394.143Z" fill="black"/>
<path d="M432.858 392.779H405.716V397.302H432.858V392.779Z" fill="#504F60"/>
<path opacity="0.1" d="M365.464 597.611H477.3C478.895 597.611 480.424 598.245 481.552 599.373C482.68 600.502 483.313 602.032 483.313 603.628V603.628H359.471C359.471 602.035 360.102 600.508 361.225 599.381C362.348 598.253 363.873 597.617 365.464 597.611V597.611Z" fill="black"/>
<path opacity="0.1" d="M378.804 603.99L387.404 603.77L387.133 606.366H378.554L378.804 603.99Z" fill="black"/>
<path opacity="0.1" d="M428.789 603.879H412.842V606.366H428.789V603.879Z" fill="black"/>
<path opacity="0.1" d="M462.736 606.366H454.157L453.896 603.77L462.486 603.99L462.736 606.366Z" fill="black"/>
<path d="M365.464 599.016H477.3C478.895 599.016 480.424 599.649 481.552 600.778C482.68 601.906 483.313 603.436 483.313 605.032V605.032H359.471C359.471 603.436 360.104 601.906 361.232 600.778C362.36 599.649 363.889 599.016 365.484 599.016H365.464Z" fill="#504F60"/>
<path d="M519.004 421.457C519.231 421.422 519.464 421.439 519.683 421.508C519.902 421.577 520.102 421.696 520.268 421.855C520.434 422.014 520.561 422.21 520.639 422.426C520.717 422.642 520.744 422.873 520.718 423.102C519.265 437.14 520.197 451.518 521.771 465.526C522.502 471.933 523.495 478.712 526.331 483.465C526.512 483.753 526.591 484.093 526.554 484.432C526.518 484.77 526.369 485.086 526.131 485.33C525.339 485.946 524.344 486.243 523.344 486.162L478.612 486.412C478.385 486.414 478.161 486.364 477.956 486.266C477.751 486.168 477.572 486.025 477.43 485.847C477.289 485.669 477.191 485.462 477.142 485.24C477.093 485.018 477.095 484.788 477.149 484.567C480.747 469.226 479.975 452.481 478.532 436.568C477.82 428.737 477.409 424.536 483.253 423.984C489.266 423.443 495.28 423.192 501.294 422.691C502.737 422.57 514.304 422.229 519.004 421.457Z" fill="white" stroke="#33313F" stroke-width="3" stroke-miterlimit="10"/>
<path d="M484.776 513.395C484.549 513.359 484.317 513.377 484.098 513.446C483.879 513.515 483.679 513.634 483.513 513.793C483.347 513.952 483.22 514.147 483.142 514.363C483.064 514.579 483.037 514.811 483.063 515.039C484.516 529.077 483.584 543.456 482 557.464C481.278 563.871 480.286 570.649 477.45 575.412C477.268 575.698 477.189 576.038 477.225 576.375C477.261 576.712 477.411 577.027 477.65 577.267C478.442 577.884 479.436 578.181 480.437 578.099L525.169 578.36C525.395 578.358 525.619 578.306 525.823 578.206C526.026 578.106 526.205 577.962 526.345 577.784C526.486 577.606 526.585 577.399 526.634 577.177C526.684 576.956 526.683 576.726 526.632 576.505C523.034 561.164 523.806 544.419 525.249 528.506C525.96 520.674 526.371 516.473 520.528 515.922C514.685 515.37 508.501 515.13 502.487 514.628C501.044 514.508 489.477 514.167 484.776 513.395Z" fill="white" stroke="#33313F" stroke-width="3" stroke-miterlimit="10"/>
<path d="M497.916 539.224C503.114 538.982 508.321 539.045 513.512 539.415C513.848 539.447 514.163 539.594 514.404 539.832C514.645 540.069 514.797 540.382 514.835 540.718L515.326 544.819C515.351 544.911 515.353 545.007 515.332 545.1C515.311 545.193 515.267 545.279 515.206 545.351C515.095 545.43 514.96 545.466 514.825 545.451C512.64 545.511 510.455 545.26 508.28 545.451C506.927 545.561 505.584 545.822 504.271 545.972C502.051 546.168 499.821 546.208 497.595 546.093C494.46 546.147 491.333 545.762 488.304 544.95C488.304 544.95 488.485 541.55 488.485 541.23C488.485 539.645 488.434 539.505 490.068 539.465L497.916 539.224Z" stroke="#33313F" stroke-width="2" stroke-miterlimit="10" stroke-linecap="round"/>
<path d="M497.916 557.714C503.114 557.958 508.322 557.891 513.512 557.513C513.848 557.481 514.163 557.333 514.404 557.096C514.645 556.859 514.797 556.546 514.835 556.21L515.326 552.118C515.351 552.025 515.353 551.927 515.332 551.833C515.311 551.739 515.268 551.651 515.206 551.577C515.095 551.498 514.96 551.462 514.825 551.477C512.64 551.417 510.455 551.677 508.28 551.477C506.927 551.377 505.584 551.116 504.271 550.965C502.051 550.765 499.82 550.725 497.595 550.845C494.46 550.791 491.333 551.176 488.304 551.988C488.304 551.988 488.485 555.377 488.485 555.708C488.485 557.292 488.434 557.423 490.068 557.473L497.916 557.714Z" stroke="#33313F" stroke-width="2" stroke-miterlimit="10" stroke-linecap="round"/>
<path d="M497.916 564.954C503.114 564.71 508.322 564.777 513.512 565.155C513.848 565.187 514.163 565.334 514.404 565.572C514.645 565.809 514.797 566.122 514.835 566.458L515.326 570.549C515.351 570.643 515.353 570.741 515.332 570.835C515.311 570.929 515.268 571.017 515.206 571.091C515.095 571.17 514.96 571.206 514.825 571.191C512.64 571.251 510.455 570.991 508.28 571.191C506.927 571.291 505.584 571.562 504.271 571.712C502.051 571.905 499.82 571.942 497.595 571.823C494.461 571.88 491.333 571.499 488.304 570.69C488.304 570.69 488.485 567.291 488.485 566.96C488.485 565.375 488.434 565.245 490.068 565.205L497.916 564.954Z" stroke="#33313F" stroke-width="2" stroke-miterlimit="10" stroke-linecap="round"/>
<path d="M504.502 479.133C504.96 480.235 505.112 481.441 504.943 482.622C504.944 482.717 504.92 482.811 504.872 482.893C504.817 482.947 504.751 482.988 504.678 483.014C504.606 483.04 504.528 483.05 504.452 483.043L494.93 483.414C494.93 483.414 495.461 480.607 495.531 480.406C495.862 479.263 496.694 479.564 497.766 479.504L504.502 479.133Z" fill="white" stroke="#33313F" stroke-width="2" stroke-miterlimit="10" stroke-linecap="round"/>
<path d="M518.884 479.133C519.339 480.236 519.488 481.442 519.315 482.622C519.32 482.716 519.3 482.81 519.255 482.893C519.199 482.946 519.133 482.986 519.06 483.012C518.988 483.038 518.911 483.048 518.834 483.043L509.302 483.414C509.302 483.414 509.844 480.607 509.914 480.406C510.234 479.263 511.066 479.564 512.149 479.504L518.884 479.133Z" fill="white" stroke="#33313F" stroke-width="2" stroke-miterlimit="10" stroke-linecap="round"/>
<path d="M513.141 431.263L514.424 442.293C514.467 442.691 514.43 443.095 514.315 443.478C514.2 443.862 514.009 444.219 513.754 444.529C513.499 444.838 513.185 445.093 512.83 445.279C512.475 445.465 512.087 445.578 511.688 445.612C503.553 446.255 495.378 446.202 487.252 445.452C486.53 445.382 485.857 445.053 485.357 444.526C484.858 443.999 484.566 443.309 484.536 442.584C484.383 440.618 484.096 438.664 483.674 436.738C483.343 434.733 482.982 432.797 485.348 432.206C487.713 431.614 490.951 432.035 493.536 431.985C496.637 431.925 499.727 431.838 502.808 431.724C503.67 431.724 513.141 431.213 513.141 431.263Z" stroke="#33313F" stroke-width="3" stroke-miterlimit="10"/>
<path d="M513.141 471.112L514.404 460.082C514.447 459.683 514.41 459.28 514.295 458.896C514.18 458.512 513.989 458.155 513.734 457.846C513.479 457.537 513.165 457.282 512.81 457.096C512.455 456.91 512.067 456.797 511.668 456.763C503.533 456.121 495.358 456.171 487.232 456.913C486.508 456.983 485.834 457.313 485.334 457.842C484.835 458.371 484.544 459.064 484.516 459.791C484.363 461.757 484.075 463.71 483.654 465.637C483.323 467.642 482.962 469.577 485.328 470.169C487.693 470.761 490.93 470.339 493.516 470.39C496.613 470.45 499.7 470.53 502.788 470.65C503.67 470.68 513.141 471.192 513.141 471.112Z" stroke="#33313F" stroke-width="3" stroke-miterlimit="10"/>
<path d="M500.262 520.814C499.928 524.484 499.717 528.161 499.631 531.844C495.952 531.813 492.286 531.393 488.696 530.591C488.413 530.577 488.136 530.502 487.886 530.37C487.635 530.238 487.417 530.053 487.246 529.827C487.074 529.601 486.955 529.341 486.895 529.064C486.836 528.787 486.838 528.5 486.901 528.224C486.831 525.938 485.629 520.835 488.846 520.514C489.808 520.413 500.252 520.995 500.262 520.814Z" stroke="#33313F" stroke-width="2" stroke-miterlimit="10" stroke-linecap="round"/>
<path d="M323.288 470.72C323.759 470.669 324.236 470.723 324.684 470.879C325.132 471.035 325.539 471.289 325.877 471.622C326.215 471.955 326.474 472.359 326.637 472.805C326.799 473.251 326.86 473.727 326.816 474.199C325.663 487.545 326.575 501.212 328.079 514.518C328.75 520.434 329.642 526.661 332.008 531.323C332.213 531.723 332.313 532.169 332.298 532.619C332.282 533.068 332.151 533.506 331.918 533.89C331.684 534.275 331.356 534.593 330.965 534.814C330.573 535.035 330.132 535.152 329.682 535.154V535.154L285.301 535.414C285.036 535.416 284.774 535.358 284.535 535.245C284.295 535.131 284.084 534.965 283.918 534.759C283.751 534.553 283.633 534.312 283.572 534.054C283.512 533.796 283.51 533.527 283.567 533.269C287.085 518.007 286.313 501.342 284.88 485.56C284.158 477.729 283.757 473.527 289.591 472.976C295.604 472.444 301.618 472.194 307.582 471.682C308.855 471.582 317.955 471.301 323.288 470.72Z" fill="white" stroke="#33313F" stroke-width="3" stroke-miterlimit="10" stroke-linecap="round"/>
<path d="M385.029 470.47C384.786 470.432 384.538 470.452 384.304 470.526C384.07 470.601 383.856 470.729 383.679 470.899C383.503 471.07 383.368 471.28 383.286 471.511C383.203 471.743 383.176 471.99 383.205 472.234C384.638 486.202 383.706 500.561 382.132 514.518C381.411 520.926 380.418 527.674 377.592 532.437C377.394 532.774 377.327 533.172 377.405 533.555C377.482 533.939 377.699 534.279 378.013 534.512C378.771 534.993 379.663 535.218 380.559 535.154L425.17 535.415C425.415 535.415 425.657 535.359 425.877 535.251C426.097 535.144 426.289 534.987 426.439 534.793C426.589 534.6 426.692 534.374 426.742 534.134C426.791 533.895 426.785 533.647 426.724 533.409C423.166 518.098 423.928 501.373 425.371 485.53C426.083 477.699 426.493 473.498 420.66 472.946C414.646 472.415 408.633 472.164 402.619 471.653C401.146 471.563 389.82 471.232 385.029 470.47Z" fill="white" stroke="#33313F" stroke-width="3" stroke-miterlimit="10"/>
<path d="M296.717 479.584L319.409 509.866" stroke="#33313F" stroke-width="2" stroke-miterlimit="10" stroke-linecap="round"/>
<path d="M319.409 477.318L297.469 511.38" stroke="#33313F" stroke-width="2" stroke-miterlimit="10" stroke-linecap="round"/>
<path d="M397.979 481.008L410.337 497.502" stroke="#33313F" stroke-width="2" stroke-miterlimit="10" stroke-linecap="round"/>
<path d="M410.336 479.764L398.389 498.324" stroke="#33313F" stroke-width="2" stroke-miterlimit="10" stroke-linecap="round"/>
<path d="M304.214 519.543C309.415 519.3 314.626 519.364 319.82 519.733C320.155 519.769 320.468 519.917 320.708 520.154C320.949 520.391 321.102 520.702 321.143 521.037L321.624 525.138C321.648 525.23 321.65 525.327 321.631 525.421C321.612 525.515 321.572 525.603 321.514 525.679C321.399 525.748 321.267 525.783 321.133 525.779C318.948 525.84 316.753 525.579 314.578 525.779C313.225 525.88 311.892 526.14 310.569 526.291C308.349 526.486 306.119 526.527 303.893 526.411C300.761 526.466 297.637 526.081 294.612 525.268C294.552 525.268 294.793 521.879 294.793 521.548C294.793 519.964 294.732 519.833 296.366 519.783L304.214 519.543Z" stroke="#33313F" stroke-width="2" stroke-miterlimit="10" stroke-linecap="round"/>
<path d="M399.552 504.402C404.753 504.157 409.964 504.224 415.157 504.602C415.494 504.634 415.809 504.782 416.05 505.019C416.291 505.256 416.443 505.569 416.48 505.906L416.961 509.997C416.985 510.089 416.988 510.186 416.969 510.28C416.95 510.374 416.909 510.462 416.851 510.538C416.741 510.616 416.605 510.652 416.47 510.638C414.285 510.699 412.09 510.438 409.915 510.638C408.562 510.739 407.229 511.009 405.906 511.15C403.687 511.35 401.456 511.391 399.231 511.27C396.096 511.324 392.968 510.939 389.94 510.127C389.89 510.127 390.12 506.738 390.12 506.407C390.12 504.823 390.07 504.692 391.704 504.642L399.552 504.402Z" stroke="#33313F" stroke-width="2" stroke-miterlimit="10" stroke-linecap="round"/>
<path d="M407.5 515.761C402.302 515.519 397.094 515.582 391.904 515.952C391.567 515.984 391.252 516.131 391.011 516.369C390.77 516.606 390.618 516.919 390.581 517.255L390.12 521.346C390.091 521.439 390.086 521.537 390.105 521.631C390.125 521.726 390.167 521.814 390.23 521.888C390.34 521.967 390.476 522.003 390.611 521.988C392.796 522.048 394.981 521.798 397.166 521.988C398.519 522.088 399.852 522.359 401.175 522.509C403.395 522.7 405.625 522.74 407.85 522.63C410.986 522.685 414.113 522.3 417.142 521.487C417.192 521.487 416.961 518.088 416.961 517.767C416.961 516.172 417.021 516.042 415.388 516.002L407.5 515.761Z" stroke="#33313F" stroke-width="2" stroke-miterlimit="10" stroke-linecap="round"/>
<path d="M342.642 508.342C342.642 508.342 357.385 507.59 360.031 508.342" stroke="#33313F" stroke-width="3" stroke-miterlimit="10"/>
<path d="M360.052 500.4C360.052 500.4 366.476 506.828 366.476 508.342C366.476 509.856 358.157 515.15 358.157 515.15" stroke="#33313F" stroke-width="3" stroke-miterlimit="10"/>
<path d="M439.072 494.624C439.072 494.624 452.432 488.367 455.169 488.066" stroke="#33313F" stroke-width="3" stroke-miterlimit="10"/>
<path d="M452.182 480.717C452.182 480.717 460.551 484.246 461.123 485.64C461.694 487.034 455.991 495.086 455.991 495.086" stroke="#33313F" stroke-width="3" stroke-miterlimit="10"/>
<path d="M438.932 510.648C438.932 510.648 452.513 516.414 454.567 518.259" stroke="#33313F" stroke-width="3" stroke-miterlimit="10"/>
<path d="M458.035 511.109C458.035 511.109 461.042 519.703 460.341 521.066C459.639 522.43 449.887 523.553 449.887 523.553" stroke="#33313F" stroke-width="3" stroke-miterlimit="10"/>
<path d="M491.642 479.133C492.097 480.236 492.246 481.442 492.073 482.622C492.078 482.716 492.057 482.81 492.013 482.893C491.957 482.946 491.89 482.986 491.818 483.012C491.746 483.038 491.669 483.048 491.592 483.043L482.06 483.414C482.06 483.414 482.601 480.607 482.672 480.406C482.992 479.263 483.834 479.564 484.907 479.504L491.642 479.133Z" fill="white" stroke="#33313F" stroke-width="2" stroke-miterlimit="10" stroke-linecap="round"/>
<path d="M311.581 565.546L314.949 562.407L311.942 562.287L310.368 564.704L311.581 565.546Z" fill="#33313F"/>
<path d="M287.355 587.525L290.924 582.943L291.715 582.121L302.64 570.67L306.359 566.779L308.103 566.569L310.609 564.082L312.082 565.375L309.646 568.223L309.686 569.717L305.888 573.838L295.163 585.49L294.472 586.232L290.162 590.223L287.355 587.525Z" fill="#65617D"/>
<path d="M291.716 582.121L302.641 570.67L305.888 573.838L295.164 585.49L291.716 582.121Z" fill="#33313F"/>
<path d="M308.204 586.533C305.028 583.576 302.267 580.203 299.995 576.506C295.184 569.006 287.146 564.955 281.633 562.939V560.503L281.974 560.433L281.824 558.166H281.974L281.583 552.15V552.1L279.598 522.249C279.598 522.249 272.532 502.346 285.091 483.986C297.65 465.627 285.873 448.019 274.066 441.131C274.066 441.131 268.573 412.052 273.284 405.164C266.894 401.484 260.309 398.154 253.559 395.187C253.449 394.826 253.359 394.465 253.268 394.084C253.138 391.376 252.968 388.669 252.817 385.962C252.974 384.555 253.232 383.161 253.589 381.791C253.739 381.219 253.91 380.647 254.09 380.056C259.703 377.91 264.538 374.12 267.963 369.18C271.387 364.241 273.242 358.382 273.284 352.371C273.287 348.864 272.655 345.386 271.42 342.103C272.053 341.061 272.536 339.933 272.853 338.754C273.605 335.656 272.753 332.347 270.989 329.209C267.842 322.41 259.994 316.043 254.301 313.687C246.142 310.378 233.864 311.16 225.365 312.183C220.594 312.754 215.151 314.349 213.427 318.72C212.796 320.325 212.786 322.099 212.345 323.734C210.561 330.412 202.853 333.52 198.092 338.634C193.883 343.146 192.079 349.253 190.676 355.199C186.767 372.24 185.835 389.83 187.919 407.189C188.4 411.2 189.042 415.161 189.723 419.131C186.857 423.142 184.271 430.231 185.454 442.544L176.032 486.924L172.113 512.944C172.113 512.944 169.758 523.653 179.129 532.838C185.143 538.694 192.41 548.591 196.89 554.998C194.939 560.671 193.973 566.636 194.033 572.635C194.133 575.363 194.284 578 194.474 580.507C194.871 585.832 195.88 591.094 197.481 596.189C198.584 606.878 200.759 620.545 205.018 629.278L206.582 675.954C206.582 675.954 204.226 718.81 199.566 727.222C194.905 735.635 209.759 806.807 209.759 806.807V816.754L207.253 824.114L206.622 823.643C194.855 838.182 206.622 843.536 206.622 843.536C206.622 843.536 209.829 843.687 214.951 843.887C214.516 845.927 214.773 848.053 215.68 849.931C216.588 851.808 218.094 853.33 219.962 854.255C219.962 854.255 286.645 857.313 298.421 854.255C310.198 851.197 307.051 840.478 300.767 841.22C298.371 841.521 294.833 840.889 291.375 839.997C295.034 835.735 292.107 829.97 287.436 830.511C281.162 831.273 267.04 825.718 267.04 825.718L266.97 825.808C266.519 825.636 266.057 825.496 265.587 825.387C260.34 824.207 255.159 822.758 250.061 821.046C247.054 814.598 240.038 797.271 245.05 783.835C247.315 777.759 248.057 769.677 248.057 761.836C248.176 738.181 251.655 714.663 258.39 691.987L267.802 659.901C267.802 659.901 281.142 620.865 281.924 610.157L281.874 594.575C292.899 601.594 301.669 599.488 307.262 596.209C308.077 595.728 308.768 595.06 309.277 594.261C309.786 593.462 310.1 592.554 310.191 591.611C310.283 590.667 310.151 589.716 309.806 588.834C309.46 587.951 308.911 587.163 308.204 586.533ZM203.495 505.314C203.765 504.191 203.986 502.967 204.176 501.674C206.021 501.674 207.875 501.674 209.719 501.614C212.013 506.276 212.977 511.48 212.505 516.654C208.256 515.341 201.901 512.122 203.495 505.364V505.314Z" fill="url(#paint0_linear)"/>
<path d="M210.951 813.034L207.944 822.058L217.757 831.875L250.221 839.425L273.624 837.159L272.111 828.846C271.661 827.063 270.729 825.437 269.417 824.148C268.105 822.859 266.464 821.955 264.674 821.537C255.052 819.271 236.71 814.117 232.851 806.947L210.951 813.034Z" fill="#DB8B8B"/>
<path opacity="0.1" d="M210.951 813.034L207.944 822.058L217.757 831.875L250.221 839.425L273.624 837.159L272.111 828.846C271.661 827.063 270.729 825.437 269.417 824.148C268.105 822.859 266.464 821.955 264.674 821.537C255.052 819.271 236.71 814.117 232.851 806.947L210.951 813.034Z" fill="black"/>
<path d="M266.067 834.892L261.536 828.875L266.067 821.857C266.067 821.857 279.648 827.341 285.692 826.589C291.735 825.837 294.712 836.406 283.426 839.424C272.141 842.442 207.934 839.424 207.934 839.424C207.934 839.424 196.608 834.14 207.934 819.791L217.746 827.341C217.746 827.341 234.354 836.366 242.663 834.892H266.067Z" fill="#2E3037"/>
<path d="M286.443 847.736L263.04 850.002L230.576 842.442L220.733 832.626L221.535 830.229L222.658 826.86L223.76 823.561L245.65 817.545C246.762 819.353 248.283 820.875 250.09 821.987C257.197 826.85 269.976 830.369 277.473 832.124C277.784 832.204 278.104 832.295 278.405 832.405C279.992 832.933 281.42 833.853 282.557 835.08C283.694 836.307 284.503 837.801 284.91 839.424L286.443 847.736Z" fill="#DB8B8B"/>
<path opacity="0.1" d="M286.443 847.738L263.04 850.004L230.576 842.443L220.733 832.627L221.535 830.23L230.556 837.159C230.556 837.159 247.174 846.184 255.473 844.71H278.866L274.336 838.693L278.405 832.406C279.992 832.935 281.42 833.855 282.557 835.082C283.694 836.308 284.503 837.802 284.91 839.425L286.443 847.738Z" fill="black"/>
<path d="M278.867 845.47L274.336 839.454L278.867 832.435C278.867 832.435 292.458 837.92 298.491 837.168C304.525 836.416 307.512 846.984 296.236 850.012C284.96 853.04 220.734 850.012 220.734 850.012C220.734 850.012 209.408 844.718 220.734 830.369L230.546 837.92C230.546 837.92 247.164 846.944 255.463 845.48L278.867 845.47Z" fill="#2E3037"/>
<path d="M260.024 407.419C260.024 407.419 223.791 411.189 229.073 396.088C230.554 391.806 230.936 387.22 230.186 382.752C229.247 377.212 227.06 371.959 223.791 367.391L257.759 372.675C255.723 376.078 254.174 379.751 253.158 383.584C249.109 399.618 260.024 407.419 260.024 407.419Z" fill="#DB8B8B"/>
<path d="M198.122 579.613C198.122 579.613 198.874 612.091 206.421 627.954L207.934 674.018C207.934 674.018 205.669 716.322 201.139 724.624C196.609 732.927 210.951 803.176 210.951 803.176V815.259C210.951 815.259 235.106 824.283 241.902 813.745L235.106 723.872L238.113 599.256L198.122 579.613Z" fill="#35323E"/>
<path opacity="0.1" d="M198.112 579.613C198.112 579.613 198.864 612.091 206.411 627.954L207.925 674.018C207.925 674.018 205.66 716.322 201.129 724.624C196.599 732.927 210.942 803.176 210.942 803.176V815.259C210.942 815.259 235.097 824.283 241.892 813.745L235.097 723.872L238.104 599.256L198.112 579.613Z" fill="black"/>
<path d="M183.018 475.393L178.487 487.475L174.719 513.154C174.209 516.732 174.559 520.379 175.741 523.794C176.923 527.209 178.902 530.292 181.514 532.787C190.535 541.812 202.653 560.733 202.653 560.733L216.995 517.687C216.995 517.687 202.653 515.421 204.968 505.604C207.283 495.788 206.471 477.659 206.471 477.659L183.018 475.393Z" fill="#F78888"/>
<path opacity="0.1" d="M250.121 821.967C240.429 837.218 225.365 828.575 222.688 826.86L223.791 823.561L245.681 817.545C246.795 819.346 248.316 820.861 250.121 821.967V821.967Z" fill="black"/>
<path d="M280.41 609.073C279.648 619.641 266.819 658.205 266.819 658.205L257.798 689.901C251.293 712.295 247.926 735.485 247.795 758.806C247.795 766.537 247.084 774.519 244.909 780.515C238.895 797.13 250.923 819.791 250.923 819.791C240.358 838.672 222.237 825.807 222.237 825.807V813.775C222.237 813.775 207.934 748.037 211.713 735.203C215.492 722.368 217.005 687.614 217.005 687.614V624.935C204.903 612.875 197.548 596.856 196.288 579.814C196.107 577.337 195.957 574.74 195.867 572.043C195.256 554.997 206.892 535.023 211.442 527.924C212.545 526.199 213.227 525.236 213.227 525.236L279.869 551.688L280.019 551.748V554.325V560.04L280.41 609.073Z" fill="#35323E"/>
<path opacity="0.1" d="M257.759 372.675C255.723 376.078 254.174 379.751 253.158 383.584C249.468 384.991 245.534 385.643 241.587 385.5C237.641 385.357 233.764 384.423 230.186 382.752C229.247 377.212 227.06 371.959 223.791 367.391L257.759 372.675Z" fill="black"/>
<path d="M242.664 384.005C258.927 384.005 272.111 370.815 272.111 354.545C272.111 338.275 258.927 325.086 242.664 325.086C226.401 325.086 213.217 338.275 213.217 354.545C213.217 370.815 226.401 384.005 242.664 384.005Z" fill="#DB8B8B"/>
<path opacity="0.1" d="M280.41 559.98L280.079 560.04C248.427 566.548 208.706 533.549 208.706 533.549C209.774 531.752 210.693 529.871 211.452 527.924C212.555 526.199 213.236 525.236 213.236 525.236L279.868 551.688L280.039 554.325L280.41 559.98Z" fill="black"/>
<path d="M272.101 406.666C272.101 406.666 229.824 380.987 216.233 391.555L197.36 415.721C197.36 415.721 185.283 419.501 187.548 443.666L178.527 487.474L205.699 494.272C205.699 494.272 221.556 509.373 208.706 531.282C208.706 531.282 248.718 564.512 280.43 557.714L278.145 522.248C278.145 522.248 271.349 502.605 283.427 484.486C295.504 466.367 284.178 448.99 272.863 442.192C272.853 442.162 267.571 413.455 272.101 406.666Z" fill="#F78888"/>
<path d="M274.366 560.732C274.366 560.732 290.222 563.741 297.769 575.843C299.948 579.477 302.608 582.799 305.677 585.72C306.359 586.351 306.885 587.131 307.215 588C307.545 588.869 307.669 589.802 307.578 590.727C307.486 591.652 307.182 592.543 306.689 593.33C306.196 594.118 305.527 594.78 304.735 595.266C298.721 598.875 288.979 601.091 276.671 590.944C255.493 573.577 274.366 560.732 274.366 560.732Z" fill="#DB8B8B"/>
<path opacity="0.1" d="M250.963 420.976C250.963 420.976 235.869 419.462 232.09 458.738C228.311 498.014 222.278 507.068 222.278 507.068C222.278 507.068 218.499 527.463 227.56 539.546C236.62 551.628 253.98 577.398 253.98 577.398C253.98 577.398 272.863 582.692 276.632 563.801L253.228 520.003C253.228 520.003 249.46 504.892 258.51 494.324C267.561 483.755 274.366 413.455 250.963 420.976Z" fill="black"/>
<path d="M252.476 418.75C252.476 418.75 237.371 417.236 233.603 456.512C229.834 495.788 223.79 504.842 223.79 504.842C223.79 504.842 220.012 525.257 229.072 537.289C238.133 549.322 255.493 575.051 255.493 575.051C255.493 575.051 274.366 580.346 278.144 561.465L254.741 517.656C254.741 517.656 250.962 502.546 260.023 491.977C269.084 481.409 275.859 411.189 252.476 418.75Z" fill="#F78888"/>
<path opacity="0.1" d="M264.935 447.047C264.935 447.047 266.438 470.46 259.643 483.305C252.847 496.149 252.847 512.754 259.643 521.819" fill="black"/>
<path opacity="0.1" d="M268.703 418.369C268.703 418.369 262.689 412.353 245.299 411.571C227.91 410.789 220.393 405.555 220.393 405.555" fill="black"/>
<path opacity="0.1" d="M226.748 316.485C222.157 317.046 216.915 318.62 215.261 322.942C214.65 324.526 214.64 326.271 214.209 327.956C212.495 334.553 205.078 337.622 200.498 342.665C196.489 347.117 194.674 353.144 193.361 359.009C189.592 375.83 188.68 393.165 190.665 410.288C192.139 422.812 195.146 435.135 195.997 447.719C196.849 460.303 195.296 473.538 188.42 484.107C185.413 488.659 181.565 492.65 179.47 497.653C183.8 501.163 189.773 501.664 195.346 501.855C201.841 502.075 208.336 502.075 214.83 501.855C218.238 501.734 221.796 501.514 224.733 499.789C226.908 498.398 228.697 496.481 229.935 494.214C233.643 487.907 234.586 480.327 234.425 473.007C234.265 465.687 233.112 458.418 232.972 451.098C232.902 447.087 233.212 442.876 235.508 439.607C237.161 437.251 239.677 435.666 241.832 433.751C249.921 426.592 252.687 415.101 252.957 404.302C253.228 393.502 251.454 382.683 252.366 371.924C252.717 367.703 254.29 362.649 258.44 361.827C259.743 361.566 261.136 361.827 262.379 361.326C265.707 360.052 265.386 355.36 266.328 351.93C267.4 348.07 270.688 345.092 271.61 341.201C273.785 332.067 262.158 321.147 254.571 317.979C246.703 314.69 234.886 315.482 226.748 316.485Z" fill="black"/>
<path d="M225.955 314.981C221.365 315.542 216.123 317.116 214.469 321.428C214.043 323.079 213.708 324.753 213.467 326.441C211.753 333.039 204.326 336.108 199.745 341.161C195.736 345.603 193.922 351.629 192.609 357.505C188.857 374.339 187.962 391.683 189.963 408.814C191.436 421.337 194.443 433.671 195.285 446.245C196.127 458.819 194.594 472.064 187.718 482.633C184.711 487.185 180.862 491.176 178.768 496.179C183.097 499.699 189.071 500.19 194.644 500.381C201.139 500.601 207.633 500.601 214.128 500.381C217.536 500.26 221.094 500.05 224.031 498.315C226.207 496.929 227.994 495.01 229.223 492.74C232.941 486.433 233.873 478.853 233.723 471.533C233.573 464.213 232.4 456.944 232.27 449.624C232.2 445.613 232.51 441.402 234.795 438.143C236.459 435.776 238.975 434.192 241.13 432.287C249.208 425.118 251.985 413.627 252.255 402.828C252.526 392.028 250.742 381.209 251.654 370.45C252.015 366.239 253.588 361.175 257.728 360.363C259.041 360.102 260.434 360.363 261.677 359.852C265.004 358.578 264.684 353.896 265.626 350.456C266.688 346.596 269.976 343.628 270.908 339.737C273.083 330.593 261.456 319.683 253.869 316.505C245.941 313.196 234.134 313.968 225.955 314.981Z" fill="#35323E"/>
</g>
<defs>
<linearGradient id="paint0_linear" x1="241.04" y1="855.659" x2="241.04" y2="311.34" gradientUnits="userSpaceOnUse">
<stop stop-color="#808080" stop-opacity="0.25"/>
<stop offset="0.54" stop-color="#808080" stop-opacity="0.12"/>
<stop offset="1" stop-color="#808080" stop-opacity="0.1"/>
</linearGradient>
<clipPath id="clip0">
<rect width="1113" height="860" fill="white"/>
</clipPath>
</defs>
</svg>
