<svg width="474" height="355" viewBox="0 0 474 355" fill="none" xmlns="http://www.w3.org/2000/svg">
<path d="M4.27027 0C3.13813 0.00133134 2.05274 0.451571 1.2522 1.25195C0.45166 2.05233 0.00133018 3.1375 0 4.2694V350.731C0.00133018 351.862 0.45166 352.948 1.2522 353.748C2.05274 354.548 3.13813 354.999 4.27027 355H469.73C470.862 354.999 471.947 354.548 472.748 353.748C473.548 352.948 473.999 351.862 474 350.731V4.2694C473.999 3.1375 473.548 2.05233 472.748 1.25195C471.947 0.451571 470.862 0.00133134 469.73 0H4.27027Z" fill="#8C9199"/>
<path d="M13.665 13.6621V341.338H460.335V13.6621H13.665Z" fill="white"/>
<path d="M341.167 31.3804C340.919 31.3807 340.682 31.4791 340.507 31.654C340.332 31.829 340.234 32.0662 340.233 32.3136V108.044C340.234 108.292 340.332 108.529 340.507 108.704C340.682 108.879 340.919 108.977 341.167 108.978H442.909C443.156 108.977 443.393 108.879 443.568 108.704C443.743 108.529 443.842 108.292 443.842 108.044V32.3136C443.842 32.0662 443.743 31.829 443.568 31.654C443.393 31.4791 443.156 31.3807 442.909 31.3804H341.167Z" fill="#E6E6E6"/>
<path d="M343.22 34.3667V105.991H440.855V34.3667H343.22Z" fill="white"/>
<path d="M341.167 138.074C340.919 138.074 340.682 138.172 340.507 138.347C340.332 138.522 340.234 138.76 340.233 139.007V214.738C340.234 214.985 340.332 215.222 340.507 215.397C340.682 215.572 340.919 215.671 341.167 215.671H442.909C443.156 215.671 443.393 215.572 443.568 215.397C443.743 215.222 443.842 214.985 443.842 214.738V139.007C443.842 138.76 443.743 138.522 443.568 138.347C443.393 138.172 443.156 138.074 442.909 138.074H341.167Z" fill="#E6E6E6"/>
<path d="M343.22 141.06V212.685H440.855V141.06H343.22Z" fill="white"/>
<path d="M341.167 244.767C340.919 244.767 340.682 244.866 340.507 245.041C340.332 245.216 340.234 245.453 340.233 245.7V321.431C340.234 321.679 340.332 321.916 340.507 322.091C340.682 322.266 340.919 322.364 341.167 322.364H442.909C443.156 322.364 443.393 322.266 443.568 322.091C443.743 321.916 443.842 321.679 443.842 321.431V245.7C443.842 245.453 443.743 245.216 443.568 245.041C443.393 244.866 443.156 244.767 442.909 244.767H341.167Z" fill="#E6E6E6"/>
<path d="M343.22 247.753V319.378H440.855V247.753H343.22Z" fill="white"/>
<path d="M422.536 92.183L403.082 78.5765H403.076L403.075 78.5787C402.413 76.4974 401.957 74.3561 401.713 72.1858C403.54 70.5227 404.836 68.3588 405.441 65.9641C405.519 66.0105 405.594 66.0616 405.666 66.117C407.37 67.48 410.608 52.9976 405.155 50.2715C405.155 50.2715 401.065 41.4116 393.226 43.4562C385.387 45.5008 380.956 48.5677 380.615 51.6345C380.274 54.7014 380.785 59.3017 380.785 59.3017C380.785 59.3017 381.258 55.8232 383.736 54.5937C382.51 55.9914 381.61 57.6436 381.099 59.4312C380.588 61.2188 380.48 63.0974 380.782 64.9317C381.085 66.7661 381.79 68.5106 382.848 70.0396C383.906 71.5687 385.289 72.8443 386.899 73.7747C386.308 75.8058 385.517 78.4385 384.853 80.3714H384.853L378.908 83.3274L365.958 91.5052C365.958 91.5052 360.848 97.9758 359.141 105.476C359.009 106.066 358.871 106.656 358.727 107.246H427.809C425.505 100.285 422.536 92.183 422.536 92.183Z" fill="#E6E6E6"/>
<path d="M418.261 311.281C419.591 310.432 420.999 309.713 422.467 309.134L407.991 291.95L398.425 289.503C396.745 288.56 395.421 287.094 394.652 285.329L399.774 285.279L401.726 274.227C402.913 271.013 402.43 268.195 399.774 265.873C400.251 262.899 398.902 260.708 395.324 259.472C391.764 256.384 386.504 255.643 383.346 260.589C382.072 260.513 380.817 260.932 379.844 261.759C378.871 262.586 378.254 263.756 378.124 265.026C375.223 268.396 378.444 280.767 379.398 285.48L384.489 285.43C384.195 287.173 383.34 288.773 382.053 289.986L381.984 289.917L371.809 294.894L357.333 311.626C358.762 312.186 360.134 312.879 361.432 313.697L359.938 319.377H370.296L373.052 315.373H373.19C373.19 315.304 373.196 315.235 373.196 315.166L375.129 312.354C375.173 314.626 375.111 316.967 374.954 319.377H407.169C407.119 317.375 407.106 315.385 407.106 313.408L410.709 318.636C410.979 318.241 411.268 317.871 411.557 317.494L412.266 319.377H420.515L418.537 311.858C418.481 311.65 418.388 311.455 418.261 311.281V311.281Z" fill="#E6E6E6"/>
<path d="M411.06 191.49L397.382 185.898C397.055 184.605 396.779 183.387 396.603 182.314C398.008 181.516 399.238 180.444 400.221 179.162C401.205 177.881 401.921 176.415 402.328 174.852L403.772 173.302C404.539 172.501 405.126 171.546 405.494 170.501C405.862 169.455 406.003 168.343 405.906 167.239C405.656 165.116 404.58 163.178 402.912 161.841C403.471 158.308 401.87 155.71 397.627 154.241C393.408 150.582 387.162 149.697 383.421 155.565C381.908 155.475 380.418 155.972 379.263 156.953C378.107 157.934 377.375 159.323 377.219 160.831C374.143 164.408 377.313 171.544 378.826 177.011C378.941 177.415 379.174 177.777 379.495 178.049C379.815 178.322 380.209 178.493 380.627 178.542C381.633 180.029 382.956 181.274 384.501 182.188C384.54 183.767 384.354 185.344 383.948 186.87L383.961 186.393L373.76 190.981L373.754 190.856L372.768 191.427L371.205 192.13C371.218 192.193 371.23 192.249 371.243 192.312L371.098 192.393C368.901 193.666 367.218 195.666 366.34 198.048L361.099 213.387H408.028C408.506 211.788 409.093 210.223 409.786 208.705L409.798 208.535L413.967 213.387H426.697L411.06 191.49Z" fill="#E6E6E6"/>
<path d="M178.845 318.683C194.02 318.683 206.323 306.383 206.323 291.21C206.323 276.037 194.02 263.737 178.845 263.737C163.669 263.737 151.366 276.037 151.366 291.21C151.366 306.383 163.669 318.683 178.845 318.683Z" fill="#E6E6E6"/>
<path d="M178.844 312.272C190.479 312.272 199.911 302.842 199.911 291.21C199.911 279.577 190.479 270.147 178.844 270.147C167.209 270.147 157.777 279.577 157.777 291.21C157.777 302.842 167.209 312.272 178.844 312.272Z" fill="white"/>
<path d="M189.398 302.714C189.272 302.714 189.147 302.689 189.031 302.641C188.914 302.593 188.809 302.522 188.72 302.433L167.61 281.327C167.437 281.145 167.343 280.904 167.346 280.654C167.349 280.403 167.45 280.164 167.627 279.988C167.804 279.811 168.043 279.71 168.293 279.707C168.543 279.703 168.785 279.798 168.966 279.97L190.076 301.076C190.21 301.21 190.302 301.381 190.339 301.567C190.376 301.753 190.357 301.946 190.284 302.121C190.212 302.297 190.089 302.447 189.931 302.552C189.773 302.657 189.588 302.714 189.398 302.714H189.398Z" fill="#F78888"/>
<path d="M178.363 294.79L175.257 291.685C175.239 291.667 175.216 291.655 175.192 291.651C175.167 291.647 175.142 291.651 175.119 291.663C175.097 291.674 175.078 291.692 175.067 291.714C175.055 291.736 175.05 291.761 175.054 291.786C175.179 292.592 175.558 293.337 176.134 293.913C176.711 294.49 177.456 294.868 178.262 294.993C178.287 294.997 178.312 294.992 178.334 294.98C178.356 294.969 178.374 294.95 178.385 294.928C178.396 294.906 178.4 294.88 178.396 294.855C178.392 294.831 178.381 294.808 178.363 294.79L178.363 294.79Z" fill="#F78888"/>
<path d="M179.322 287.613L182.433 290.722C182.451 290.74 182.474 290.751 182.498 290.756C182.523 290.76 182.549 290.756 182.571 290.745C182.594 290.733 182.612 290.715 182.624 290.693C182.636 290.671 182.64 290.645 182.637 290.62C182.512 289.814 182.133 289.068 181.556 288.49C180.978 287.913 180.232 287.535 179.425 287.41C179.4 287.406 179.375 287.41 179.352 287.421C179.33 287.433 179.312 287.451 179.3 287.474C179.289 287.496 179.285 287.522 179.289 287.547C179.293 287.572 179.304 287.595 179.322 287.613V287.613Z" fill="#F78888"/>
<path d="M192.936 292.242C193.135 291.931 193.24 291.569 193.239 291.199C193.238 290.83 193.131 290.469 192.93 290.158C191.392 287.753 189.363 285.699 186.977 284.13C184.559 282.522 181.728 281.647 178.824 281.608C177.359 281.61 175.905 281.849 174.517 282.315C174.478 282.328 174.443 282.35 174.415 282.381C174.388 282.411 174.368 282.448 174.359 282.487C174.35 282.527 174.351 282.569 174.362 282.608C174.373 282.648 174.394 282.683 174.423 282.712L177.256 285.545C177.286 285.574 177.322 285.596 177.362 285.607C177.403 285.618 177.445 285.618 177.485 285.608C178.446 285.374 179.45 285.391 180.402 285.658C181.354 285.924 182.221 286.431 182.919 287.13C183.618 287.829 184.126 288.696 184.392 289.647C184.659 290.599 184.676 291.603 184.442 292.563C184.432 292.603 184.432 292.646 184.443 292.686C184.454 292.726 184.476 292.762 184.505 292.792L188.58 296.869C188.623 296.911 188.679 296.936 188.739 296.939C188.799 296.942 188.858 296.922 188.904 296.883C190.473 295.547 191.832 293.982 192.936 292.242V292.242Z" fill="#F78888"/>
<path d="M178.842 296.957C177.971 296.957 177.111 296.76 176.327 296.379C175.543 295.998 174.856 295.445 174.317 294.76C173.778 294.075 173.402 293.277 173.216 292.425C173.031 291.574 173.042 290.691 173.247 289.844C173.257 289.804 173.257 289.762 173.246 289.722C173.235 289.682 173.214 289.645 173.184 289.616L169.176 285.606C169.133 285.564 169.076 285.539 169.016 285.536C168.956 285.534 168.897 285.554 168.851 285.593C167.311 286.927 165.947 288.453 164.793 290.133C164.576 290.444 164.456 290.813 164.45 291.192C164.443 291.572 164.549 291.945 164.754 292.264C166.268 294.671 168.278 296.728 170.649 298.299C173.07 299.913 175.913 300.781 178.823 300.795C180.303 300.791 181.772 300.557 183.18 300.102C183.219 300.09 183.254 300.067 183.282 300.037C183.31 300.007 183.33 299.97 183.34 299.93C183.349 299.89 183.349 299.849 183.338 299.809C183.326 299.769 183.305 299.733 183.276 299.704L180.429 296.859C180.4 296.829 180.363 296.808 180.323 296.797C180.283 296.786 180.241 296.785 180.201 296.796C179.756 296.903 179.3 296.958 178.842 296.957V296.957Z" fill="#F78888"/>
<path d="M74.5877 318.683C89.7636 318.683 102.066 306.383 102.066 291.21C102.066 276.037 89.7636 263.737 74.5877 263.737C59.4119 263.737 47.1094 276.037 47.1094 291.21C47.1094 306.383 59.4119 318.683 74.5877 318.683Z" fill="#E6E6E6"/>
<path d="M74.5882 312.272C86.2231 312.272 95.6549 302.842 95.6549 291.21C95.6549 279.577 86.2231 270.147 74.5882 270.147C62.9534 270.147 53.5215 279.577 53.5215 291.21C53.5215 302.842 62.9534 312.272 74.5882 312.272Z" fill="white"/>
<path d="M82.6812 304.641C81.5106 304.641 79.8662 304.217 77.4037 302.842C74.3432 301.207 71.5485 299.117 69.115 296.643C66.5963 294.245 64.4929 291.445 62.8905 288.359C60.6812 284.341 61.0578 282.236 61.4788 281.336C61.9648 280.351 62.7291 279.532 63.6768 278.978C64.2201 278.622 64.795 278.317 65.3944 278.067C65.4543 278.041 65.5101 278.016 65.5599 277.994C65.7582 277.882 65.9782 277.813 66.2052 277.792C66.4321 277.772 66.6609 277.799 66.8763 277.874C67.3549 278.104 67.7808 278.431 68.1273 278.833C69.3746 280.233 70.4268 281.795 71.2554 283.476C71.596 284.058 71.8054 284.707 71.8689 285.377C71.8192 286.041 71.5502 286.67 71.1043 287.165C71.0257 287.272 70.9478 287.375 70.8722 287.474C70.4158 288.074 70.3157 288.247 70.3816 288.557C70.5154 289.178 71.5127 291.029 73.1517 292.664C74.7908 294.299 76.5887 295.234 77.213 295.367C77.5357 295.436 77.7126 295.331 78.3315 294.859C78.4203 294.791 78.5114 294.721 78.6068 294.651C79.1028 294.183 79.7423 293.897 80.4215 293.839H80.4251C81.1059 293.909 81.7606 294.139 82.3358 294.509C83.4153 295.054 85.8807 296.523 86.962 297.614C87.3654 297.959 87.6931 298.384 87.9245 298.862C87.9988 299.078 88.0265 299.307 88.0058 299.534C87.9851 299.761 87.9166 299.982 87.8046 300.181C87.7824 300.231 87.7578 300.285 87.732 300.346C87.4796 300.944 87.1726 301.517 86.815 302.059C86.2595 303.006 85.4383 303.768 84.4534 304.253C83.8997 304.515 83.2937 304.647 82.6812 304.641V304.641Z" fill="#F78888"/>
<path d="M283.908 318.683C299.084 318.683 311.386 306.383 311.386 291.21C311.386 276.037 299.084 263.737 283.908 263.737C268.732 263.737 256.43 276.037 256.43 291.21C256.43 306.383 268.732 318.683 283.908 318.683Z" fill="#E6E6E6"/>
<path d="M283.909 312.272C295.543 312.272 304.975 302.842 304.975 291.21C304.975 279.577 295.543 270.147 283.909 270.147C272.274 270.147 262.842 279.577 262.842 291.21C262.842 302.842 272.274 312.272 283.909 312.272Z" fill="white"/>
<path d="M287.746 303.682H280.07C279.815 303.682 279.571 303.581 279.391 303.401C279.211 303.221 279.11 302.977 279.11 302.723C279.11 302.468 279.211 302.224 279.391 302.044C279.571 301.864 279.815 301.763 280.07 301.763H287.746C288.001 301.763 288.245 301.864 288.425 302.044C288.605 302.224 288.706 302.468 288.706 302.723C288.706 302.977 288.605 303.221 288.425 303.401C288.245 303.581 288.001 303.682 287.746 303.682V303.682Z" fill="#F78888"/>
<path d="M283.908 298.885C281.619 298.882 279.424 297.972 277.805 296.353C276.186 294.734 275.275 292.54 275.272 290.251V288.332C275.272 288.077 275.374 287.833 275.554 287.654C275.733 287.474 275.978 287.373 276.232 287.373C276.487 287.373 276.731 287.474 276.911 287.654C277.09 287.833 277.192 288.077 277.192 288.332V290.251C277.193 292.031 277.902 293.737 279.161 294.995C280.421 296.253 282.128 296.96 283.908 296.96C285.689 296.96 287.396 296.253 288.656 294.995C289.915 293.737 290.624 292.031 290.625 290.251V288.332C290.625 288.077 290.726 287.833 290.906 287.654C291.086 287.474 291.33 287.373 291.585 287.373C291.839 287.373 292.083 287.474 292.263 287.654C292.443 287.833 292.544 288.077 292.544 288.332V290.251C292.542 292.54 291.631 294.734 290.012 296.353C288.393 297.972 286.198 298.882 283.908 298.885V298.885Z" fill="#F78888"/>
<path d="M283.909 303.682C283.783 303.682 283.658 303.657 283.542 303.609C283.425 303.561 283.319 303.49 283.23 303.401C283.141 303.312 283.07 303.206 283.022 303.09C282.974 302.973 282.949 302.848 282.949 302.722V297.926C282.949 297.671 283.05 297.427 283.23 297.247C283.41 297.067 283.654 296.966 283.909 296.966C284.163 296.966 284.407 297.067 284.587 297.247C284.767 297.427 284.868 297.671 284.868 297.926V302.722C284.868 302.848 284.844 302.973 284.795 303.09C284.747 303.206 284.676 303.312 284.587 303.401C284.498 303.49 284.392 303.561 284.276 303.609C284.16 303.657 284.035 303.682 283.909 303.682V303.682Z" fill="#F78888"/>
<path d="M283.908 295.048C283.275 295.046 282.648 294.917 282.066 294.669C281.483 294.421 280.956 294.058 280.517 293.603C279.617 292.695 279.111 291.469 279.11 290.191V283.535C279.108 282.908 279.229 282.286 279.467 281.705C279.705 281.125 280.055 280.597 280.497 280.151C280.939 279.706 281.465 279.352 282.043 279.109C282.622 278.867 283.243 278.741 283.871 278.739C283.883 278.739 283.896 278.739 283.908 278.739C284.54 278.732 285.167 278.851 285.752 279.09C286.337 279.328 286.869 279.681 287.316 280.128C287.763 280.575 288.116 281.107 288.355 281.692C288.593 282.277 288.713 282.904 288.706 283.535V290.191C288.712 291.471 288.211 292.7 287.311 293.611C286.412 294.521 285.188 295.038 283.908 295.048V295.048Z" fill="#F78888"/>
<path d="M38.5883 31.5303C37.9233 31.5311 37.2858 31.7955 36.8156 32.2656C36.3454 32.7358 36.0809 33.3732 36.0801 34.038V237.541C36.0809 238.206 36.3454 238.843 36.8156 239.313C37.2858 239.783 37.9233 240.048 38.5883 240.048H311.988C312.653 240.048 313.29 239.783 313.76 239.313C314.231 238.843 314.495 238.206 314.496 237.541V34.038C314.495 33.3732 314.231 32.7358 313.76 32.2656C313.29 31.7955 312.653 31.5311 311.988 31.5303H38.5883Z" fill="#5A626D" fill-opacity="0.7"/>
<path d="M44.1064 39.5547V232.024H306.469V39.5547H44.1064Z" fill="white"/>
<path d="M225.266 232.024L225.738 230.174L221.637 213.188L221.237 211.52L220.936 210.274L221.416 210.113L245.646 202.041L245.956 206.523L247.713 232.024H225.266Z" fill="#FFDADA"/>
<path d="M128.939 213.188L124.838 230.174L125.311 232.024H102.863L104.62 206.523L104.93 202.041L129.641 210.274L128.939 213.188Z" fill="#FFDADA"/>
<path d="M195.537 145.078L156.412 149.196C160.522 138.618 159.762 126.479 156.412 113.51H184.555C186.404 124.578 190.118 135.252 195.537 145.078V145.078Z" fill="#FFDADA"/>
<path d="M170.827 129.98C182.578 129.98 192.105 120.456 192.105 108.706C192.105 96.9565 182.578 87.4316 170.827 87.4316C159.075 87.4316 149.548 96.9565 149.548 108.706C149.548 120.456 159.075 129.98 170.827 129.98Z" fill="#FFDADA"/>
<path d="M231.919 153.315C227.427 173.163 223.73 192.033 221.416 210.113C221.353 210.585 221.293 211.052 221.238 211.52C221.161 212.133 221.085 212.745 221.017 213.358C220.259 219.673 219.688 225.895 219.302 232.024H133.665C133.754 226.244 133.563 220.332 133.133 214.34C131.657 193.786 127.322 172.291 121.405 151.941L121.448 151.924L158.886 138.995L159.158 138.902C169.95 143.882 180.695 144.111 191.355 136.554C191.389 136.533 191.419 136.507 191.453 136.486L226.351 151.001L226.364 151.005L231.919 153.315Z" fill="#90CCF4"/>
<path d="M257.314 203.411L214.757 215.078L225.053 150.568L231.621 152.757C234.029 153.56 236.199 154.952 237.932 156.807C239.665 158.662 240.906 160.92 241.543 163.377L257.314 203.411Z" fill="#90CCF4"/>
<path d="M93.2617 203.411L135.819 215.078L125.523 150.568L118.955 152.757C116.547 153.56 114.377 154.952 112.644 156.807C110.911 158.662 109.67 160.92 109.033 163.377L93.2617 203.411Z" fill="#90CCF4"/>
<path d="M169.459 72.718C165.839 72.8842 162.313 73.9221 159.181 75.7434C158.461 76.1625 158.794 77.6739 158.128 78.1669C157.289 78.7877 155.469 78.4107 154.727 79.1378C152.33 81.4769 150.485 84.3204 149.325 87.4618C148.166 90.6031 147.721 93.9633 148.022 97.2981L149.205 109.049L151.993 106C156.993 100.457 163.934 97.05 171.378 96.4849C171.695 96.4634 172.012 96.4465 172.329 96.4343L170.184 92.6806L173.912 96.4084C175.613 96.4271 177.31 96.5652 178.992 96.8218L176.139 91.8301L181.613 97.3032L181.614 97.3034C183.852 97.7957 185.944 98.8068 187.721 100.255C189.497 101.704 190.908 103.549 191.841 105.643L192.448 106.99L193.129 95.7797C193.197 92.6812 192.626 89.602 191.452 86.7335C190.279 83.865 188.527 81.2685 186.307 79.1055C184.087 76.9425 181.446 75.2593 178.547 74.1604C175.649 73.0615 172.555 72.5705 169.459 72.718V72.718Z" fill="#2F2E41"/>
<path d="M149.765 112.244C150.705 112.244 151.467 110.435 151.467 108.204C151.467 105.972 150.705 104.164 149.765 104.164C148.825 104.164 148.063 105.972 148.063 108.204C148.063 110.435 148.825 112.244 149.765 112.244Z" fill="#FFDADA"/>
<path d="M192.303 110.968C193.243 110.968 194.005 109.159 194.005 106.928C194.005 104.697 193.243 102.888 192.303 102.888C191.363 102.888 190.602 104.697 190.602 106.928C190.602 109.159 191.363 110.968 192.303 110.968Z" fill="#FFDADA"/>
</svg>
