<svg width="237" height="21" viewBox="0 0 237 21" fill="none" xmlns="http://www.w3.org/2000/svg">
<path fill-rule="evenodd" clip-rule="evenodd" d="M236.23 6.08901C234.188 4.83011 232.036 4.52521 229.702 4.83405C228.171 5.03683 226.606 5.29506 225.092 4.6523C224.713 4.49248 224.18 4.52129 223.734 4.5708C220.313 4.96852 216.98 4.20603 213.599 4.07299C206.755 3.80299 199.929 3.17605 193.08 2.97749C188.971 2.85969 184.85 2.73886 180.717 2.9307C172.428 3.3118 164.135 3.04487 155.841 3.08339C142.112 3.14545 128.402 3.7939 114.687 4.26267C106.487 4.54223 98.283 4.80494 90.0976 5.27063C78.7875 5.92009 67.4869 6.73211 56.1853 7.517C48.8428 8.0313 41.5024 8.60662 34.166 9.18518C27.3695 9.72114 20.6243 10.6116 13.8794 11.5123C11.3357 11.8522 8.74067 12.316 6.17349 11.9713C4.08797 11.6913 2.61216 12.6217 1.15267 13.5515C-0.490125 14.5964 0.257002 15.5272 1.78372 16.2102C2.47419 16.5221 3.40938 16.5369 4.22352 16.4983C5.35911 16.4417 6.18981 16.6095 6.61014 17.6501C6.79478 18.1086 7.34842 18.4829 7.88858 18.4606C9.89247 18.3771 11.7741 19.0647 13.875 18.747C16.7881 18.3026 19.8529 17.6322 22.701 19.1175C22.9153 19.2322 23.2475 19.2647 23.499 19.2186C27.7791 18.4413 32.1304 19.1445 36.4461 18.495C40.0645 17.9512 43.7779 17.8962 47.456 17.7237C53.6148 17.4373 59.7725 17.2291 65.9229 16.8141C71.9723 16.406 78.0491 16.2244 84.1143 16.1585C95.3613 16.044 106.585 15.3806 117.818 14.9679C124.901 14.707 131.991 14.6563 139.075 14.436C147.174 14.1837 155.259 13.7317 163.335 13.0459C172.779 12.2478 182.233 11.5376 191.688 10.8444C194.9 10.6066 198.121 10.9557 201.336 10.9961C203.755 11.027 206.085 10.7251 208.431 10.4395C211.166 10.1099 213.864 9.65598 216.656 9.74852C218.009 9.79289 219.387 9.44954 220.742 9.22576C221.269 9.13951 221.894 8.97516 221.739 8.31888C221.615 7.80061 222.018 7.83067 222.336 7.81275C224.439 7.69521 226.418 6.93047 228.586 7.01085C231.156 7.10775 233.598 5.99767 236.23 6.08901Z" fill="#F3D250"/>
</svg>
